<?xml version="1.0" standalone="no"?>
<!DOCTYPE svg PUBLIC "-//W3C//DTD SVG 1.1//EN" "http://www.w3.org/Graphics/SVG/1.1/DTD/svg11.dtd" >
<svg xmlns="http://www.w3.org/2000/svg">
<metadata></metadata>
<defs>
<font id="liberal_serifregular" horiz-adv-x="1554" >
<font-face units-per-em="2048" ascent="1638" descent="-410" />
<missing-glyph horiz-adv-x="587" />
<glyph horiz-adv-x="0" />
<glyph unicode="&#xd;" horiz-adv-x="512" />
<glyph horiz-adv-x="0" />
<glyph horiz-adv-x="0" />
<glyph unicode=" "  horiz-adv-x="587" />
<glyph unicode="&#x09;" horiz-adv-x="587" />
<glyph unicode="&#xa0;" horiz-adv-x="587" />
<glyph unicode="!" horiz-adv-x="405" d="M49 129q0 33 12.5 60.5t34 48t49 33t58.5 12.5q63 0 108 -46.5t45 -107.5q0 -31 -12 -58.5t-32.5 -49t-49.5 -34t-59 -12.5q-31 0 -58.5 12.5t-49 33t-34 49t-12.5 59.5zM51 1415q-8 47 35 68.5t117 21.5t116.5 -21.5t34.5 -68.5q-14 -98 -27.5 -222t-24.5 -256 t-21.5 -264t-18.5 -249h-119q-10 117 -19 249t-20.5 264t-24.5 256t-28 222z" />
<glyph unicode="&#x22;" horiz-adv-x="655" d="M46 1386q-1 29 7 55.5t28.5 45t59.5 18.5t60.5 -18.5t29 -45t6.5 -55t-4 -47.5l-53 -417q0 -6 -1 -16.5t-4 -22t-11 -18.5t-23 -7q-14 0 -21 7t-10.5 18.5t-4.5 21.5t-1 17l-55 417q-2 18 -3 47zM419 1386q-1 29 7 55.5t28.5 45t59.5 18.5t60.5 -18.5t28.5 -45t6 -55 t-3 -47.5l-53 -417q0 -6 -1 -16.5t-4 -22t-11.5 -18.5t-22.5 -7t-21.5 7t-10.5 18.5t-4 21.5t-1 17l-55 417q-2 18 -3 47z" />
<glyph unicode="#" horiz-adv-x="1054" d="M25 438v160h227l37 264h-209v160h231l60 412h135l-57 -412h262l57 412h137l-57 -412h182v-160h-205l-34 -264h188v-160h-213l-59 -438h-136l58 438h-264l-64 -438h-137l63 438h-202zM389 598h264l35 264h-262z" />
<glyph unicode="$" horiz-adv-x="993" d="M31 334.5q-2 19.5 14 25.5l66 25q8 2 15 -11.5t15.5 -38t20.5 -55t31 -61.5q14 -29 68 -66.5t130 -41.5h39v548q-100 66 -171 116t-116 98.5t-66.5 100.5t-21.5 124q0 66 28 127t79 110t125.5 82t171.5 41v68h110v-68q92 -4 142.5 -14t87.5 -27q47 -18 70.5 -34.5 t19.5 -43.5v-151q0 -6 -4 -11.5t-8 -11.5l-60 -43q-6 -6 -16 5.5t-21.5 31t-23 43t-21.5 43.5q-23 47 -59.5 72.5t-106.5 38.5v-463q197 -129 294.5 -243.5t101.5 -235.5q2 -96 -34 -174t-97.5 -133.5t-138.5 -87t-154 -35.5v-187h-111v178q-39 0 -81 3.5t-82 8.5t-73.5 12 t-54.5 13q-41 12 -62.5 20.5t-30.5 16.5t-11 19.5t-2 31.5v199q0 16 -2 35.5zM348 1200q-12 -84 24 -136t87 -81v356q-12 -4 -29.5 -14t-34 -27.5t-30 -42t-17.5 -55.5zM541 135q41 16 88 67.5t51 137.5q2 45 -11.5 82t-35 66.5t-47 51t-45.5 33.5v-438z" />
<glyph unicode="%" horiz-adv-x="1857" d="M35 1042q0 68 21.5 141.5t67.5 135t117.5 100.5t170.5 39q98 0 168.5 -39t116.5 -100.5t67.5 -135t21.5 -141.5q0 -111 -27.5 -198.5t-77.5 -148t-118.5 -93.5t-150.5 -33t-152 33t-120 93.5t-77.5 148.5t-27.5 198zM250 1034q0 -139 16.5 -216t41 -114.5t52 -46 t52.5 -8.5t52.5 8.5t51 46t39.5 114.5t16 216q0 123 -16 191.5t-39.5 102.5t-51 42t-52.5 8t-52.5 -8t-52 -42t-41 -102.5t-16.5 -191.5zM424 0l856 1434h141l-854 -1434h-143zM1071 446q0 70 21.5 144t67.5 135t118 100t170 39t169 -39t117 -100t67.5 -135t21.5 -144 q0 -109 -28 -195.5t-78 -148t-118.5 -94.5t-150.5 -33t-151.5 33t-120 94.5t-78 148.5t-27.5 195zM1286 438q0 -137 16.5 -214t41 -114.5t52 -46t52.5 -8.5t52.5 8.5t51 46t40 114.5t16.5 214q0 123 -16.5 192.5t-40 103.5t-51 42t-52.5 8t-52.5 -8t-52 -42t-41 -103.5 t-16.5 -192.5z" />
<glyph unicode="&#x26;" horiz-adv-x="1605" d="M41 397q0 57 20.5 116.5t62.5 111t107.5 92.5t155.5 65q-33 33 -72 70t-72.5 79t-56 92t-22.5 110q0 143 106.5 234t309.5 91q68 0 120 -10t99 -29q35 -16 55 -29.5t18 -33.5v-142q0 -6 -12 -18l-43 -31q-14 -8 -20 9l-39 75q-20 39 -67.5 69t-112.5 30q-74 0 -122 -37 t-48 -109q0 -74 51 -147.5t141 -159.5l475 -463q20 45 30.5 105.5t10.5 123t-13 119t-40 90.5h-213q-23 0 -37 8.5t8 30.5l62 64q16 16 34.5 19t43.5 3h579q20 0 34.5 -9t-5.5 -30l-62 -63q-16 -16 -34.5 -19.5t-42.5 -3.5h-211q12 -41 17 -102t-1 -131t-23.5 -142.5 t-50.5 -134.5l250 -217q27 -27 60.5 -52t33.5 -46v-43h-235q-33 0 -58.5 12.5t-54.5 36.5l-119 115q-31 -33 -73.5 -66.5t-99 -61.5t-127 -45.5t-158.5 -17.5q-121 0 -220.5 32t-170 89.5t-109.5 134t-39 166.5zM317 403q0 -66 24 -121t66 -96t98 -64.5t124 -23.5 q104 0 187 45t136 113l-465 446q-55 -27 -87.5 -64.5t-51 -78.5t-25 -82t-6.5 -74z" />
<glyph unicode="'" horiz-adv-x="251" d="M32 1386q-1 29 7 55.5t28.5 45t59.5 18.5t60.5 -18.5t28.5 -45t6 -55t-3 -47.5l-53 -417q0 -6 -1 -16.5t-4 -22t-11.5 -18.5t-22.5 -7t-21.5 7t-10.5 18.5t-4 21.5t-1 17l-55 417q-2 18 -3 47z" />
<glyph unicode="(" horiz-adv-x="653" d="M18 567q0 295 136.5 533.5t410.5 404.5q14 4 26.5 -4t21 -20.5t8.5 -26.5t-13 -20q-102 -63 -168.5 -154.5t-105.5 -202t-55.5 -237.5t-16.5 -262t14.5 -267.5t52.5 -250t107.5 -219t179.5 -177.5q10 -8 8.5 -23.5t-11 -31t-25 -25.5t-29.5 -6q-117 74 -215 171t-171 219 t-114 270.5t-41 328.5z" />
<glyph unicode=")" horiz-adv-x="653" d="M29 1442.5q2 15.5 11 31t23.5 24.5t30.5 7q117 -74 215.5 -171t171 -219t113.5 -270.5t41 -328.5q0 -295 -136.5 -533.5t-410.5 -404.5q-14 -4 -26.5 4t-20.5 20.5t-8 27t12 20.5q100 63 168 154.5t106.5 202t55 237.5t16.5 262t-14.5 267t-52 250t-107.5 219t-180 177 q-10 8 -8 23.5z" />
<glyph unicode="*" horiz-adv-x="778" d="M23 1108l53 158l248 -99l-17 267h166l-18 -267l250 99l51 -158l-260 -66l172 -206l-136 -99l-143 228l-143 -228l-135 99l172 206z" />
<glyph unicode="+" horiz-adv-x="1044" d="M6 438v160h436v438h160v-438h436v-160h-436v-438h-160v438h-436z" />
<glyph unicode="," horiz-adv-x="393" d="M23 -266q53 57 80.5 121.5t33.5 124.5q8 59 0 106t-12 82q-8 61 35 97t96 36q57 0 90 -46t33 -116q0 -20 -16.5 -58t-43 -84t-57.5 -95t-61.5 -94.5t-55 -80t-36.5 -51.5q-47 -20 -68 -3.5t-18 61.5z" />
<glyph unicode="-" horiz-adv-x="620" d="M55 399v176h510v-176h-510z" />
<glyph unicode="." horiz-adv-x="382" d="M39 129q0 33 12 60.5t33.5 48t49.5 33t59 12.5q63 0 108 -46.5t45 -107.5q0 -31 -12 -58.5t-32.5 -49t-49.5 -34t-59 -12.5q-31 0 -59 12.5t-49.5 33t-33.5 49t-12 59.5z" />
<glyph unicode="/" horiz-adv-x="815" d="M4 -221l653 1726h154l-653 -1726h-154z" />
<glyph unicode="0" horiz-adv-x="1130" d="M39 762q0 115 30.5 238.5t95 225t164 167t236.5 65.5t236.5 -65.5t164 -167t95.5 -225t31 -238.5q0 -182 -39 -327.5t-109 -248t-167 -157t-212 -54.5t-212 54.5t-166.5 157t-108.5 248t-39 327.5zM336 741q0 -156 20.5 -274.5t53 -199.5t73.5 -123t82 -42t82 42t74 123 t53.5 200t20.5 274q0 180 -26 295t-62.5 180.5t-75.5 90t-66 24.5t-65.5 -24.5t-75.5 -90t-62.5 -180t-25.5 -295.5z" />
<glyph unicode="1" horiz-adv-x="886" d="M24 1265.5q1 12.5 17 18.5l563 174v-1218q0 -41 13.5 -64.5t29.5 -34.5q29 -18 69 -23t74.5 -9.5t55 -11.5t10.5 -27l-18 -37q-12 -29 -38 -31t-57 -2h-587h-40t-34 3t-20.5 11.5t-0.5 22.5l19 43q8 18 32.5 25.5t53.5 10.5t55.5 5t38.5 10q20 12 43 39t23 70v911 q0 57 -17.5 76.5t-47.5 16.5t-67.5 -19.5t-76.5 -28.5l-45 -16q-25 -6 -33 18l-12 41q-4 14 -3 26.5z" />
<glyph unicode="2" horiz-adv-x="1150" d="M41 0v158q76 74 167 146.5t171 158.5q45 49 107.5 119.5t120 151.5t97 166t39.5 163q0 63 -20.5 107t-51 71t-66.5 38t-64 11q-55 0 -98.5 -16.5t-74 -41t-52 -52t-33.5 -50.5l-54 -96q-4 -10 -12 -12t-12 2l-51 27q-4 6 -9.5 13t-5.5 11v189q0 29 25.5 48t64.5 48 q45 33 139.5 65.5t202.5 32.5q94 0 179.5 -21.5t150 -64.5t103 -110.5t38.5 -159.5q0 -94 -48 -186.5t-114.5 -173t-135 -145.5t-111.5 -103l-324 -289h477q51 0 92.5 39t72 83t52 78.5t35.5 28.5l60 -31q6 -4 11 -13t1 -19l-115 -320q-10 -33 -36.5 -42t-73.5 -9h-844z" />
<glyph unicode="3" horiz-adv-x="1091" d="M38 244.5q1 7.5 15 21.5l58 49q10 10 22 13.5t19 -6.5l110 -134q35 -39 84 -69.5t123 -30.5q121 0 198.5 77t77.5 216q0 104 -48 164.5t-115.5 91.5t-142 40t-126.5 11v111q76 10 142.5 35.5t116 65.5t78 96.5t28.5 129.5q0 63 -18.5 104.5t-46 64t-58.5 30.5t-55 8 q-61 0 -106.5 -22.5t-76 -53t-49 -63.5t-26.5 -53l-31 -68q-10 -20 -27 -10l-41 22q-12 8 -12 23v180q0 23 72 74q47 35 133 65.5t223 30.5q76 0 152.5 -19.5t138 -58.5t99.5 -98t38 -141q0 -66 -30.5 -124.5t-80 -106.5t-113 -82.5t-128.5 -51.5v-6q88 -4 163.5 -31.5 t133 -76t90.5 -115t33 -146.5q0 -100 -46 -179t-125 -134t-185.5 -84t-229.5 -29q-66 0 -124 9.5t-105 21.5t-80 26.5t-47 24.5l-72 168q-4 12 -3 19.5z" />
<glyph unicode="4" horiz-adv-x="1193" d="M10 514q166 236 337 463t341 457h225v-848h174q23 0 38.5 -8.5t4.5 -30.5l-65 -129h-152v-178q0 -41 16.5 -64.5t33.5 -34.5q29 -18 65.5 -23t67 -8.5t49 -10.5t8.5 -27l-18 -37q-12 -29 -28.5 -32t-47.5 -3h-623q-43 0 -71.5 4t-16.5 33l19 43q8 18 36.5 25.5t62.5 10.5 t65.5 5t43.5 10q20 12 43 39t23 70v178h-514q-29 0 -47.5 2t-24.5 14zM233 586h408v559q-125 -147 -226.5 -288.5t-181.5 -270.5z" />
<glyph unicode="5" horiz-adv-x="1077" d="M27 256.5q-2 11.5 8 24.5l55 67q10 10 20.5 11t18.5 -11l121 -151q33 -41 83 -77t142 -36q59 0 112.5 20.5t93.5 58.5t63.5 93t23.5 127q0 70 -34 138.5t-105.5 121.5t-184 84t-270.5 27l203 680h567q27 0 50.5 -6.5t15.5 -26.5l-84 -176h-443l-75 -258 q166 -2 284.5 -48.5t196.5 -118t114.5 -160.5t36.5 -177q-4 -123 -55 -214t-133 -152.5t-184.5 -91.5t-208.5 -30q-53 0 -106.5 9.5t-102.5 24t-89 31.5t-63 34l-65 159q-4 12 -6 23.5z" />
<glyph unicode="6" horiz-adv-x="1099" d="M33 559q2 133 55 281.5t163.5 277.5t282 221.5t406.5 112.5q29 4 39 -10.5t0 -36.5l-39 -86q-133 -4 -236.5 -52t-179 -122t-123 -164t-65.5 -176q63 35 138 59.5t161 24.5q94 0 174 -31t137.5 -89t88 -140t30.5 -183q0 -106 -41 -193t-109.5 -148.5t-159.5 -95.5 t-194 -34q-111 0 -208 38t-168.5 112t-112.5 183.5t-39 250.5zM305 492q-8 -197 65.5 -297.5t198.5 -100.5q59 0 103.5 26.5t73 69.5t43 97.5t14.5 109.5q0 76 -16.5 142.5t-48 113.5t-80 75t-111.5 28q-100 0 -171 -67.5t-71 -196.5z" />
<glyph unicode="7" horiz-adv-x="952" d="M47 0q45 80 102.5 180.5t119 212t124 226t118.5 224t102 206t77 170.5h-385q-51 0 -84 -26t-54.5 -54.5t-34.5 -49t-28 -10.5l-28 23q-10 14 -10 28l-3 259q0 29 13.5 37t44.5 8h821v-109q-29 -61 -77 -162.5t-107.5 -224.5t-125 -257t-127 -261t-114.5 -236.5 t-86 -183.5h-258z" />
<glyph unicode="8" horiz-adv-x="1148" d="M41 375q0 86 30.5 148.5t76 107.5t98.5 76.5t98 56.5q-53 27 -101 61.5t-85 76.5t-58.5 93.5t-21.5 110.5q0 82 41 147.5t108.5 111.5t156.5 69.5t185 23.5q92 0 174 -19.5t144.5 -59.5t99.5 -100t37 -142q0 -72 -31.5 -127.5t-77 -95.5t-94.5 -66.5t-82 -38.5 q63 -31 130 -66.5t120 -85t88 -116t35 -158.5t-41 -168t-112.5 -129t-170 -82t-213.5 -29q-123 0 -222 29t-167.5 82t-106.5 126t-38 163zM287 367q0 -63 24.5 -113.5t64.5 -85.5t93.5 -53.5t112.5 -18.5q33 0 79 12.5t86.5 40t69.5 70.5t29 105q0 68 -33 121t-86 95 t-119.5 74.5t-132.5 61.5q-84 -47 -136 -122t-52 -187zM336 1153q0 -47 23.5 -88t62.5 -76t88 -63.5t102 -48.5q35 16 69 39.5t61.5 56.5t44 73.5t16.5 94.5q0 39 -16.5 75.5t-47 64.5t-75 45t-97.5 17q-57 0 -100 -17t-72.5 -44t-44 -61.5t-14.5 -67.5z" />
<glyph unicode="9" horiz-adv-x="1095" d="M37 995q0 94 37 178t104.5 147.5t164.5 100.5t222 37q131 0 226.5 -44t157 -116.5t90 -168t28.5 -195.5q-2 -86 -23.5 -184.5t-67.5 -198.5t-119 -194.5t-172 -171t-230 -131t-293 -72.5q-29 -4 -39 10t0 37l43 94q100 2 197.5 49t179.5 118.5t139 160t78 174.5 q-49 -29 -114.5 -56.5t-170.5 -27.5q-92 0 -172 27.5t-139.5 85t-93 142.5t-33.5 199zM301 1006q0 -154 63.5 -242t192.5 -88q49 0 93 17.5t76 54t50.5 94t18.5 135.5q0 168 -65 264t-169 96q-70 0 -119 -30.5t-80.5 -78.5t-46 -107.5t-14.5 -114.5z" />
<glyph unicode=":" horiz-adv-x="393" d="M43 129q0 33 12.5 60.5t34 48t49 33t58.5 12.5q63 0 108 -46.5t45 -107.5q0 -31 -12 -58.5t-32.5 -49t-49.5 -34t-59 -12.5q-31 0 -58.5 12.5t-49 33t-34 49t-12.5 59.5zM43 860q0 33 12.5 60.5t34 48t49 33t58.5 12.5q63 0 108 -46t45 -108q0 -31 -12 -58.5t-32.5 -49 t-49.5 -33.5t-59 -12q-31 0 -58.5 12t-49 32.5t-34 49t-12.5 59.5z" />
<glyph unicode=";" horiz-adv-x="428" d="M25 -266q53 57 80.5 121.5t33.5 124.5q8 59 0 106t-12 82q-8 61 35 97t96 36q57 0 90 -46t33 -116q0 -20 -16.5 -58t-43 -84t-57.5 -95t-61.5 -94.5t-55 -80t-36.5 -51.5q-47 -20 -67.5 -3.5t-18.5 61.5zM104 860q0 33 12.5 60.5t34 48t49 33t58.5 12.5q63 0 108.5 -46 t45.5 -108q0 -31 -12.5 -58.5t-33 -49t-49 -33.5t-59.5 -12t-58.5 12t-49 32.5t-34 49t-12.5 59.5z" />
<glyph unicode="&#x3c;" horiz-adv-x="1097" d="M2 463v110l1042 480v-154l-823 -381l823 -381v-153z" />
<glyph unicode="=" horiz-adv-x="1142" d="M55 240v159h1032v-159h-1032zM55 637v160h1032v-160h-1032z" />
<glyph unicode="&#x3e;" horiz-adv-x="1099" d="M55 -16v153l822 381l-822 381v154l1043 -480v-110z" />
<glyph unicode="?" horiz-adv-x="837" d="M39 1329l70 125q16 10 47.5 19.5t71.5 16.5t86 11t89 4q86 0 162 -23.5t132.5 -68.5t89 -110.5t32.5 -147.5q0 -66 -24.5 -120t-61.5 -102t-81 -90t-83 -81q-41 -39 -66.5 -75t-41 -72.5t-22.5 -78.5t-9 -92h-147q-4 53 -1 97.5t17 89.5t40 97t69 122q59 106 85.5 184 t26.5 154q0 43 -11 84t-29.5 72.5t-45 52t-57.5 20.5q-47 0 -84 -27.5t-60 -50.5l-81 -82q-14 -10 -26.5 -8t-25.5 11l-47 30q-25 14 -14 39zM205 129q0 33 12 60.5t33.5 48t49 33t58.5 12.5q63 0 108.5 -46.5t45.5 -107.5q0 -31 -12.5 -58.5t-33 -49t-49 -34t-59.5 -12.5 t-58.5 12.5t-49 33t-33.5 49t-12 59.5z" />
<glyph unicode="@" horiz-adv-x="1605" d="M39 670q0 174 63.5 318.5t173 248.5t257 162.5t315.5 58.5q147 0 258 -32.5t190.5 -85t133 -120t84 -137t43 -136t12.5 -116.5q0 -43 -6.5 -98t-21.5 -114.5t-44 -117t-74 -102.5t-108.5 -72.5t-149.5 -27.5q-49 0 -87 19.5t-64.5 46t-42 53t-15.5 41.5 q-10 -10 -34.5 -31.5t-57.5 -44.5t-72.5 -41t-82.5 -20q-23 -2 -65 5t-83 34.5t-70.5 83t-29.5 153.5q0 111 41 203t103.5 156.5t135 100.5t138.5 36q78 0 114.5 -36t59.5 -77l22 86h172l-133 -514q-6 -27 -10 -54.5t2 -51t26.5 -39t61.5 -15.5q78 0 124 42t70.5 106.5 t31.5 141.5t7 148q0 94 -35.5 187.5t-108.5 167.5t-182.5 120t-258.5 46q-131 0 -243 -43t-192.5 -126t-127 -203t-46.5 -273q0 -102 35 -212t108 -201t185.5 -149.5t267.5 -58.5q139 0 252 34t191 68l49 -94q-104 -45 -226 -82t-261 -37q-154 0 -273 33t-207 88.5 t-148.5 127t-97 148.5t-53 153.5t-16.5 144.5zM682 590q0 -90 28.5 -117t75.5 -27q25 0 59 25t66.5 76t57 130t35.5 185q0 61 -30 90t-69 29q-33 0 -71.5 -23.5t-72.5 -71.5t-56.5 -122t-22.5 -174z" />
<glyph unicode="A" d="M28 12q-1 3 -1 7q0 8 4 20l10 29q4 12 17.5 18t35.5 12q33 8 53.5 15.5t35 22t26.5 37t29 60.5l352 906q13 35 13 59q0 26 -9 48q-8 18 -20.5 29t-20.5 19q-18 16 -42 24.5t-44.5 14.5t-29.5 15.5t1 27.5l11 33q6 16 19 20.5t30 4.5h354q23 0 35 -18.5t16 -41.5 q53 -154 110.5 -307.5t116 -298.5t114.5 -280.5t106 -254.5q14 -37 25 -59t26.5 -34.5t39 -20.5t62.5 -19q28 -8 28 -26q0 -4 -1 -8l-21 -46q-8 -14 -20 -17t-31 -3h-481q-16 0 -26.5 6t-2.5 27l19 41q6 14 26.5 22t38.5 20q19 14 28 36q4 9 4 21q0 20 -9 48l-80 207h-514 l-92 -233q-14 -41 2 -60.5t40.5 -31t44 -19.5t9.5 -27l-12 -22q-4 -8 -11.5 -21.5t-29.5 -13.5h-318q-14 0 -28 -1h-7q-10 0 -18 2q-10 3 -13 11zM504 551h426l-211 555z" />
<glyph unicode="B" horiz-adv-x="1308" d="M43 1372l16 41q10 23 37 23h656q80 0 152.5 -15.5t130 -51.5t92 -94t38.5 -145v-16q-1 -104 -75 -182q-80 -84 -211 -129v-4q111 -12 185.5 -55.5t120.5 -98.5t65.5 -115.5t19.5 -111.5q0 -115 -50.5 -195t-130 -131t-182 -73.5t-207.5 -22.5q-147 0 -253.5 3t-182.5 13 q-45 8 -49 47t-4 86v1055q0 66 -32 95.5t-97 39.5q-23 9 -35 15q-7 4 -7 11q0 5 3 11zM498 281q0 -104 49 -143.5t141 -39.5q128 0 196 85q67 83 66 221v8q-6 141 -92 225t-240 84h-120v-440zM498 827h123q63 0 111 21.5t81 58.5t49.5 84t16.5 99q0 72 -17.5 117.5 t-51.5 72.5t-83 37t-113 10h-116v-500z" />
<glyph unicode="C" horiz-adv-x="1378" d="M37 729q0 150 59.5 283t164 232t246.5 156.5t308 57.5q92 0 170 -14t139.5 -33.5t104.5 -41t67 -36.5q12 -6 14.5 -15t2.5 -20v-131q0 -10 -13 -22l-55 -39q-12 -8 -33.5 24.5t-67.5 75.5t-125 81t-202 38q-117 0 -205 -44t-147 -121t-89 -183.5t-30 -231.5 q0 -154 42 -272.5t112.5 -199t165 -122.5t198.5 -42t212 30.5t194 110.5q12 10 24.5 11t22.5 -4t13 -15q1 -3 1 -6q0 -7 -4 -15l-63 -137q-10 -16 -17.5 -29.5t-23.5 -23.5q-37 -23 -147.5 -39.5t-252.5 -16.5q-176 0 -320.5 55.5t-247.5 155t-160.5 237.5t-57.5 306z" />
<glyph unicode="D" horiz-adv-x="1583" d="M47 1370l16 39q6 14 15.5 19.5t19.5 5.5h674q219 0 366.5 -49.5t237.5 -138.5t128 -215t38 -281q0 -160 -58.5 -298.5t-160.5 -242t-245.5 -161.5t-311.5 -58h-172t-132.5 3t-104.5 10t-87 22q-55 20 -55 108v1065q0 66 -31.5 95.5t-97.5 39.5q-23 5 -35 13q-7 4 -7 13 q0 5 3 11zM504 291q0 -59 18.5 -96t53 -58.5t82 -30t106.5 -8.5q119 0 208 50.5t146.5 137.5t86 204.5t28.5 254.5q0 152 -32 259.5t-95.5 175t-155.5 99.5t-213 32h-233v-1020z" />
<glyph unicode="E" horiz-adv-x="1183" d="M41 1370l16 39q6 14 15.5 19.5t19.5 5.5h893q29 0 46.5 -14.5t12.5 -37.5v-163q0 -8 -10 -19l-37 -31q-12 -10 -25.5 11.5t-35 50.5t-54 54.5t-83.5 25.5h-301v-475h473q20 0 28.5 -8.5t-2.5 -22.5l-36 -64q-10 -16 -25.5 -22t-40.5 -6h-397v-398q0 -115 32.5 -153.5 t116.5 -38.5h168q76 0 121 26.5t72.5 58.5t41 56.5t23.5 22.5l51 -17q12 -4 13 -18v-201q0 -25 -27 -38t-68 -13h-632q-59 0 -97.5 2t-62 15.5t-32.5 42t-9 81.5v1057q0 66 -32 95.5t-97 39.5q-23 5 -35 13q-7 4 -7 13q0 5 3 11z" />
<glyph unicode="F" horiz-adv-x="1075" d="M47 1370l16 39q6 14 15.5 19.5t19.5 5.5h893q29 0 47 -14q14 -12 14 -30q0 -4 -1 -8v-163q0 -8 -11 -19l-36 -31q-12 -10 -25.5 11.5t-35 50.5t-54.5 54.5t-84 25.5h-301v-559h475q20 0 27.5 -9.5t-0.5 -21.5l-39 -64q-15 -28 -61 -28h-3h-399v-410q0 -66 28.5 -87 t104.5 -38q20 -4 24.5 -14t-2.5 -23l-16 -41q-10 -16 -35 -16h-522q-12 0 -23.5 6t-3.5 29l13 35q6 16 17 20l22 8q39 8 71.5 35t32.5 86v979q0 66 -31.5 95.5t-97.5 39.5q-23 5 -35 13q-7 4 -7 13q0 5 3 11z" />
<glyph unicode="G" horiz-adv-x="1460" d="M37 729q0 150 59.5 283t164 232t246.5 156.5t308 57.5q92 0 170 -14t139.5 -33.5t104.5 -41t67 -36.5q12 -6 14.5 -15t2.5 -20v-131q0 -10 -13 -22l-55 -39q-12 -8 -33.5 24.5t-67.5 75.5t-125 81t-202 38q-113 0 -200 -44t-147 -122t-92 -185.5t-32 -234.5 q0 -152 39 -269.5t104.5 -197t150.5 -121.5t177 -42q84 0 147.5 21.5t105.5 57t63.5 81.5t21.5 98q0 72 -31.5 110.5t-70.5 48.5q-16 12 -34 17.5t-31 10.5t-20 12t-1 20l16 37q6 16 19.5 19t27.5 3h336q35 0 40 -12t9 -41v-479q0 -47 -8 -79t-47 -32h-182q-16 0 -23.5 8 t-10.5 18.5t-3 22.5v21v39q-31 -35 -72 -59.5t-88 -42t-96 -26t-94 -8.5q-164 0 -301.5 55.5t-238.5 155t-157.5 237.5t-56.5 306z" />
<glyph unicode="H" horiz-adv-x="1601" d="M53 35l13 35q6 16 17 20t21 8q39 8 72 35t33 86v995q0 66 -27.5 87.5t-103.5 37.5q-20 5 -24 15q-2 4 -2 9q0 6 3 13l17 41q10 16 34 17h521q12 0 23.5 -6.5t2.5 -28.5l-12 -35q-6 -16 -17.5 -20.5t-21.5 -8.5q-39 -8 -71.5 -34.5t-32.5 -86.5v-366h606v366 q0 66 -27.5 87.5t-103.5 37.5q-20 4 -24.5 14.5t1.5 22.5l17 41q10 16 34 17h521q12 0 23 -6q6 -4 6 -13q0 -7 -3 -16l-12 -35q-6 -16 -17.5 -20.5t-21.5 -8.5q-39 -8 -71.5 -34.5t-32.5 -86.5v-995q0 -66 27.5 -87t103.5 -38q20 -4 24 -14q2 -4 2 -8q0 -7 -4 -15l-16 -41 q-10 -16 -35 -16h-520q-12 0 -23.5 6t-3.5 29l13 35q6 16 17 20t21 8q39 8 72 35t33 86v506h-606v-506q0 -66 27.5 -87t103.5 -38q20 -4 24 -14t-2 -23l-16 -41q-10 -16 -35 -16h-520q-12 0 -24 6q-7 4 -6 13q0 7 3 16z" />
<glyph unicode="I" horiz-adv-x="681" d="M41 35l12 35q6 16 17.5 20t21.5 8q39 8 72 35t33 86v995q0 66 -28 87.5t-103 37.5q-20 5 -24 15q-2 4 -2 9q0 6 3 13l16 41q10 16 35 17h520q12 0 24 -6q7 -4 6 -14q0 -6 -3 -15l-12 -35q-6 -16 -17.5 -20.5t-21.5 -8.5q-39 -8 -72 -34.5t-33 -86.5v-995q0 -66 28 -87 t103 -38q20 -4 24 -14q2 -4 2 -9q0 -6 -3 -14l-16 -41q-10 -16 -35 -16h-520q-12 0 -24 6q-7 4 -6 13q0 7 3 16z" />
<glyph unicode="J" horiz-adv-x="659" d="M37 1354q-2 4 -2 8q0 7 4 14l16 41q10 16 35 17h520q12 0 24 -6q6 -4 6 -14q0 -6 -3 -15l-12 -35q-6 -16 -17.5 -20.5t-21.5 -8.5q-39 -8 -72 -34.5t-33 -86.5v-1124q0 -145 -44 -238.5t-109.5 -147.5t-140 -74.5t-134.5 -20.5v102q35 14 61.5 41t41.5 55 q16 35 26.5 95.5t10.5 126.5v1185q0 66 -28 87.5t-104 37.5q-20 4 -24 15z" />
<glyph unicode="K" horiz-adv-x="1417" d="M53 35l13 35q6 16 17 20t21 8q39 8 72 35t33 86v995q0 66 -27.5 87.5t-103.5 37.5q-20 5 -24 15q-2 4 -2 9q0 6 3 13l17 41q10 16 34 17h521q12 0 23.5 -6.5t2.5 -28.5l-12 -35q-6 -16 -17.5 -20.5t-21.5 -8.5q-39 -8 -71.5 -34.5t-32.5 -86.5v-442h4l542 662h228v-60 q0 -23 -18.5 -33t-49 -23t-72.5 -41t-88 -83l-319 -385q72 -92 157 -198.5t163.5 -203t143 -171t93.5 -103.5q12 -12 28.5 -24.5t32 -23.5t25.5 -20.5t10 -17.5v-47h-254q-33 0 -58.5 11.5t-50 33t-51 54t-61.5 73.5l-401 533h-4v-486q0 -66 27.5 -87t103.5 -38 q20 -4 24 -14t-2 -23l-16 -41q-10 -16 -35 -16h-520q-12 0 -24 6q-7 4 -6 13q0 7 3 16z" />
<glyph unicode="L" horiz-adv-x="1146" d="M49 35l12 35q6 16 17.5 20t21.5 8q39 8 72 35t33 86v995q0 66 -27.5 87.5t-103.5 37.5q-20 5 -24 15q-2 4 -2 9q0 6 3 13l17 41q10 16 34 17h521q12 0 23 -6.5t3 -28.5l-12 -35q-6 -16 -17.5 -20.5t-21.5 -8.5q-39 -8 -71.5 -34.5t-32.5 -86.5v-899q0 -66 7 -106.5 t24.5 -63t46 -32t71.5 -9.5h166q76 0 121 30t72.5 64.5t41 62.5t23.5 26l51 -17q12 -4 12 -18v-201q0 -25 -26.5 -38t-67.5 -13h-960q-12 0 -24 6q-7 4 -6 13q0 7 3 16z" />
<glyph unicode="M" horiz-adv-x="1998" d="M51 1352q-3 5 -3 11t3 13l17 41q12 16 34 17h326q25 0 41 -2t28.5 -11.5t23.5 -26t24 -44.5l461 -973l497 991q20 41 42 53.5t44 12.5h326q17 0 27 -6q6 -4 5 -14q0 -7 -3 -17l-13 -39q-6 -16 -20.5 -22.5t-30.5 -10.5q-47 -10 -75.5 -35.5t-28.5 -91.5v-979 q0 -66 27.5 -87t103.5 -38q20 -4 24 -14t-2 -23l-16 -41q-10 -16 -35 -16h-520q-12 0 -23.5 6t-3.5 29l12 35q6 16 17.5 20t21.5 8q39 8 72 35t33 86v821h-4l-486 -995q-10 -18 -18 -31.5t-21 -13.5h-59q-10 0 -21.5 18.5t-23.5 47.5l-453 974h-4v-821q0 -66 28 -87t103 -38 q20 -4 24.5 -14t-1.5 -23l-16 -41q-10 -16 -35 -16h-373q-12 0 -23.5 6t-3.5 29l13 35q6 16 17 20l22 8q39 8 71.5 35t32.5 86v977q-45 66 -91 98.5t-77 38.5q-31 9 -37 19z" />
<glyph unicode="N" horiz-adv-x="1675" d="M47 1352q-3 5 -3 11t3 13l16 41q12 16 35 17h353q39 -4 62.5 -28t51.5 -56l760 -957h4v821q0 66 -27.5 87.5t-103.5 37.5q-20 4 -24.5 14.5t2.5 22.5l16 41q10 16 35 17h372q11 0 23 -6q7 -4 7 -14q0 -6 -3 -15l-12 -35q-6 -16 -17.5 -20.5t-21.5 -8.5q-39 -8 -72 -34.5 t-33 -86.5v-1146q0 -31 -8 -49.5t-37 -18.5h-141q-8 0 -23.5 16.5t-62.5 75.5l-778 991h-4v-864q0 -66 27.5 -87t103.5 -38q20 -4 24 -14t-2 -23l-16 -41q-10 -16 -35 -16h-373q-12 0 -23 6t-3 29l12 35q6 16 17.5 20t21.5 8q39 8 71.5 35t32.5 86v993q-45 47 -97 77t-93 42 q-31 11 -37 21z" />
<glyph unicode="O" horiz-adv-x="1570" d="M39 696q0 172 63.5 312.5t172 241t250.5 154.5t302 54q154 0 284 -57.5t223 -154.5t145.5 -227t52.5 -274q0 -152 -54.5 -290t-154.5 -245.5t-244.5 -171t-324.5 -63.5q-135 0 -264.5 49.5t-229.5 142.5t-160.5 226t-60.5 303zM348 768q0 -170 35 -295t94.5 -206 t141 -119.5t174.5 -38.5q115 0 196.5 58t134 147t76 196.5t23.5 208.5q0 160 -37 274.5t-98.5 188t-140.5 108.5t-163 35q-127 0 -211 -58.5t-134 -143.5t-70.5 -182t-20.5 -173z" />
<glyph unicode="P" horiz-adv-x="1232" d="M47 1368l16 41q6 14 16.5 19.5t18.5 5.5h643q90 0 176.5 -21.5t152 -68t105 -119t39.5 -172.5q-2 -123 -55 -209t-137 -140q-84 -56 -190 -78q-90 -19 -179 -19q-16 0 -32 1l-129 6l-11 95h26.5h40h41h27.5q125 6 206 83.5t81 231.5q0 141 -73.5 213t-184.5 72h-139 v-1090q0 -66 26.5 -87t102.5 -38q39 -8 24 -37l-16 -41q-12 -16 -35 -16h-520q-12 0 -24.5 5t-2.5 30l11 35q6 16 18 20t23 6q39 10 71.5 37t32.5 86v981q0 66 -31.5 93.5t-97.5 39.5q-25 7 -36 13q-7 4 -7 12q0 4 2 10z" />
<glyph unicode="Q" horiz-adv-x="1759" d="M27 696q0 172 63.5 312.5t172 241t250.5 154.5t302 54q154 0 284 -57.5t223 -154.5t145.5 -227t52.5 -274q0 -143 -42 -259.5t-107.5 -206t-148.5 -149.5t-163 -91q70 -35 154.5 -70t174 -67.5t177.5 -59t166 -43.5v-63l-189 -49q-31 -10 -56 -11q-1 -1 -4 -1 q-23 0 -55 16l-596 284q-170 0 -313 37t-252 131q-111 92 -175 237.5t-64 315.5zM336 766q0 -170 35 -294t94 -205t141 -119.5t174 -38.5q115 0 197 57t134 146t75.5 196.5t23.5 208.5q0 160 -36.5 274.5t-98 189t-140.5 109.5t-163 35t-149.5 -27.5t-114.5 -72.5 t-82 -102.5t-52.5 -120t-28.5 -124t-9 -112.5z" />
<glyph unicode="R" horiz-adv-x="1382" d="M51 1370l17 39q6 14 15 19.5t19 5.5h713q72 0 139.5 -20.5t121.5 -63.5t87 -109.5t33 -159.5q0 -61 -16.5 -121.5t-51 -116t-87 -101.5t-126.5 -78q70 -121 134.5 -222.5t121 -178.5t101.5 -127t76 -68v-68h-308q-25 0 -37 18.5t-20 30.5l-321 569h-154v-399 q0 -66 27.5 -87t103.5 -38q20 -4 24.5 -14t-1.5 -23l-17 -41q-10 -16 -35 -16h-520q-12 0 -23.5 6t-3.5 29l13 35q6 16 17 20l22 8q39 8 71.5 35t32.5 86v979q0 66 -31.5 95.5t-97.5 39.5q-23 5 -35 13q-7 4 -7 13q0 5 3 11zM508 729h127q53 0 101 19.5t85 60.5t57 103 q19 57 19 132v15q-2 76 -19.5 127t-47 81.5t-70.5 43t-88 12.5h-164v-594z" />
<glyph unicode="S" horiz-adv-x="1019" d="M45 339q0 16 14 21l66 25q8 2 15 -11.5t15.5 -38t20.5 -55t31 -61.5q31 -61 87 -93t122 -32q115 0 190.5 66.5t79.5 175.5v16q0 58 -26 105q-30 53 -77.5 100t-109 88t-121.5 84q-45 33 -95 64.5t-91 72.5t-68.5 96.5t-27.5 135.5q0 70 31.5 135t94 115.5t154.5 80 t215 29.5q86 0 143.5 -11t104.5 -30q47 -18 70.5 -34.5t19.5 -43.5v-151q0 -6 -4 -11.5t-8 -11.5l-60 -43q-6 -6 -16 5.5t-21.5 31t-22.5 43t-21 43.5q-31 61 -77 87t-110 26q-31 0 -63.5 -10.5t-61 -30t-49 -49t-27.5 -68.5q-3 -20 -3 -38q-1 -33 9 -61q14 -44 48.5 -82 t84.5 -75t113 -80q84 -55 150.5 -106t114 -104.5t73 -112t27.5 -129.5v-19q0 -101 -39 -176q-43 -82 -117.5 -136t-173 -80t-205.5 -26q-88 0 -163.5 10.5t-126.5 26.5q-41 12 -62.5 20.5t-31 16.5t-11.5 19.5t-2 31.5v199z" />
<glyph unicode="T" horiz-adv-x="1378" d="M32 1298q-5 3 -6 10q0 9 13 25l45 74q14 16 30.5 21.5t41.5 5.5h1155q23 0 36 -8q5 -3 5 -10q0 -9 -13 -25l-45 -74q-14 -16 -30.5 -21.5t-40.5 -5.5h-392v-1071q0 -66 28 -87t104 -38q20 -4 24 -14t-2 -23l-16 -41q-10 -16 -35 -16h-520q-12 0 -23.5 6t-3.5 29l12 35 q6 16 17.5 20t21.5 8q39 8 72 35t33 86v1071h-475q-22 0 -36 8z" />
<glyph unicode="U" horiz-adv-x="1484" d="M37 1354q-2 4 -2 8q0 7 4 14l16 41q10 16 35 17h520q12 0 23.5 -6.5t3.5 -28.5l-12 -35q-6 -16 -17.5 -20.5t-21.5 -8.5q-39 -8 -72 -34.5t-33 -86.5v-661q0 -76 13.5 -151.5t49.5 -137t98.5 -99.5t160.5 -38q160 0 248 103.5t88 324.5v659q0 66 -28 87.5t-103 37.5 q-20 4 -24.5 14.5t1.5 22.5l16 41q10 16 35 17h381q11 0 23 -6q7 -4 7 -14q0 -6 -3 -15l-12 -35q-6 -16 -17.5 -20.5t-21.5 -8.5q-39 -8 -72 -34.5t-33 -86.5v-661q0 -176 -49 -287.5t-126 -176t-168 -89.5t-173 -25q-172 0 -283.5 46.5t-177 124t-92 181t-26.5 220.5v667 q0 66 -28 87.5t-104 37.5q-20 5 -24 15z" />
<glyph unicode="V" horiz-adv-x="1507" d="M27 1370l18 39q8 16 18.5 20.5t34.5 4.5h486q16 0 27.5 -6.5t2.5 -26.5l-18 -41q-8 -18 -28.5 -27.5t-39 -22t-27.5 -34.5q-3 -8 -3 -20q0 -20 10 -48l309 -866l357 870q11 29 11 50q-1 18 -9 30q-18 25 -44 36t-48.5 18.5t-10.5 27.5l17 31q6 10 11 19.5t21 9.5h297 q27 0 49 -1q16 -1 15 -16q0 -6 -2 -14l-11 -33q-8 -23 -30.5 -32t-50.5 -25q-41 -27 -59.5 -67t-39.5 -87l-440 -1077q-10 -25 -25.5 -53.5t-31.5 -28.5h-129q-23 0 -32 24.5t-22 57.5l-409 1116q-12 37 -24.5 59.5t-28 37t-38 22.5t-57.5 18q-13 3 -23 11q-6 4 -6 13 q0 5 3 11z" />
<glyph unicode="W" horiz-adv-x="2220" d="M39 1376l16 41q4 16 33 17h449q14 0 23 -6.5t3 -22.5l-16 -47q-6 -18 -24.5 -27.5t-35 -22t-24.5 -34.5q-3 -8 -3 -18q0 -19 9 -48l260 -864h4l340 1008q12 35 20.5 58.5t22.5 23.5h127q14 0 20.5 -27t16.5 -55l322 -998h4l256 858q8 29 8 50q0 20 -8 32q-16 25 -41 39 q-29 12 -48.5 20.5t-9.5 26.5l17 29q6 10 11 17.5t19 7.5h328q18 0 34 -2q12 -1 13 -13q0 -4 -2 -10l-16 -49q-4 -10 -18.5 -15.5t-32.5 -11.5q-27 -8 -45.5 -17t-32 -23.5t-22.5 -37t-19 -55.5l-338 -1118q-10 -35 -24.5 -58.5t-43.5 -23.5h-143q-20 0 -42 27.5t-30 54.5 l-282 917h-4l-306 -917q-12 -35 -25.5 -58.5t-41.5 -23.5h-135q-20 0 -42 27.5t-30 54.5l-330 1116q-12 37 -22.5 59.5t-22.5 37t-26.5 22.5t-34.5 18q-16 9 -28 17q-8 5 -9 15q0 4 2 9z" />
<glyph unicode="X" horiz-adv-x="1568" d="M47 29l14 49q4 12 16.5 14t35.5 8q45 12 79.5 37t63.5 68l375 528l-318 467q-31 43 -52 66.5t-38.5 35t-32 15.5t-30.5 6q-23 4 -35 18.5t-4 30.5l20 45q8 16 37 17h553q16 0 25.5 -6.5t1.5 -22.5l-15 -33q-10 -23 -37.5 -31t-56.5 -24q-25 -14 -36 -31.5t16 -56.5 l194 -295l232 301q14 20 15 34.5t-6 25t-20.5 18.5t-27.5 14q-29 14 -51.5 24.5t-12.5 26.5l19 35q4 8 8 14.5t18 6.5h353q10 0 19 -6.5t5 -16.5l-14 -45q-4 -12 -22.5 -20.5t-30.5 -12.5q-33 -14 -61.5 -45t-63.5 -78l-285 -387l393 -583q20 -33 39 -54.5t38 -36t43 -22.5 t56 -12q32 -5 50 -11q12 -4 12 -14q0 -5 -4 -12l-27 -58q-6 -14 -19.5 -17t-33.5 -3h-551q-16 0 -25.5 7t-1.5 32l11 33q4 10 26.5 18t46.5 21q23 12 35 28.5t-6 46.5l-272 437l-312 -447q-14 -20 -16 -34.5t3 -23.5t15.5 -15.5t22.5 -10.5q20 -6 38.5 -11t8.5 -26l-14 -26 q-6 -12 -12.5 -20.5t-20.5 -8.5h-334q-16 0 -30 4q-10 3 -11 14q0 5 2 11z" />
<glyph unicode="Y" horiz-adv-x="1361" d="M33 1372l16 43q4 12 14.5 15.5t22.5 3.5h463q10 0 18 -6.5t4 -20.5l-16 -45q-4 -14 -24.5 -21.5t-41.5 -29.5q-14 -12 -22 -35q-3 -8 -3 -20q0 -19 9 -48l250 -518l293 531q16 30 16 50q0 12 -6 21q-14 23 -41 37q-29 16 -47 25.5t-8 27.5l18 35q4 4 8.5 9.5t14.5 5.5 h340q24 0 24 -17q0 -5 -2 -12l-10 -37q-6 -16 -28.5 -24.5t-34.5 -14.5q-27 -10 -56.5 -33.5t-64.5 -91.5l-301 -547q-25 -47 -34 -98t-9 -98v-240q0 -66 27.5 -87t103.5 -38q20 -4 24 -14t-2 -23l-16 -41q-10 -16 -35 -16h-520q-12 0 -23.5 6t-3.5 29l12 35q6 16 17.5 20 t21.5 8q39 8 72 35t33 86v334l-318 647q-18 37 -32.5 59.5t-28.5 36t-27.5 20.5t-27.5 15q-18 8 -32 17q-10 5 -10 14q0 4 3 10z" />
<glyph unicode="Z" horiz-adv-x="1282" d="M43 82l791 1231h-426q-51 0 -85 -36t-55.5 -76t-33.5 -69.5t-25 -17.5l-37 41q-10 14 -10 25v180q0 35 15.5 54.5t49.5 19.5h955v-72l-787 -1237h549q68 0 108 29.5t62.5 63.5t33.5 61.5t21 25.5l52 -18q12 -4 12 -21v-207q0 -29 -26.5 -44t-67.5 -15h-1049z" />
<glyph unicode="[" horiz-adv-x="567" d="M55 -395v1900h506v-88h-133q-49 0 -80 -5t-48 -17.5t-24.5 -35t-7.5 -56.5v-1479q0 -41 8.5 -66.5t28 -40t52 -19.5t81.5 -5h123v-88h-506z" />
<glyph unicode="\" horiz-adv-x="815" d="M4 1505h154l653 -1726h-154z" />
<glyph unicode="]" horiz-adv-x="567" d="M6 -307h133q49 0 80 5t48.5 17.5t24.5 35t7 56.5v1479q0 41 -8 66.5t-27.5 40t-52.5 19.5t-82 5h-123v88h506v-1900h-506v88z" />
<glyph unicode="^" horiz-adv-x="974" d="M25 686l376 748h174l375 -748h-155l-308 606l-305 -606h-157z" />
<glyph unicode="_" horiz-adv-x="1134" d="M55 -154h1024v-102h-1024v102z" />
<glyph unicode="`" horiz-adv-x="509" d="M16 1473q0 43 26 67.5t60 24.5q41 0 80 -29t74 -59l233 -224q8 -61 -69 -61l-279 158q-45 25 -85 54.5t-40 68.5z" />
<glyph unicode="a" horiz-adv-x="1064" d="M41 289q0 86 46 148.5t171 103.5q100 35 204.5 67.5t176.5 75.5v111q0 49 -13.5 80.5t-33 51t-43 27t-47.5 7.5q-16 0 -40 -8.5t-48.5 -24t-46 -40t-33.5 -61.5q-8 -39 -33 -59h-2q-4 -4 -8 -6q-29 -16 -55.5 -17.5t-42.5 3.5h-3q-2 0 -1 1t-1 1h-2q-33 12 -57 38 q-6 8 -6 11l-2 4q-4 4 -4 7t-2 7q-6 16 -4 33q4 82 114.5 139.5t319.5 57.5q129 0 200.5 -30t106.5 -73t43 -93t8 -89v-37v-10v-496q0 -53 15.5 -72.5t50.5 -33.5q10 -10 23.5 -14.5t22.5 -9.5t13 -12q2 -3 2 -7q0 -6 -4 -15l-8 -39q-10 -16 -41 -16h-283h-3q-52 0 -52 61 v50q-27 -18 -57.5 -39t-66.5 -38.5t-78 -29.5t-87 -12q-76 0 -134 24.5t-97 65.5t-58.5 94t-19.5 113zM317 322q0 -88 47.5 -138.5t118.5 -50.5q25 0 51.5 7t49 25.5t38 50.5t17.5 79v295q-35 -16 -90 -38t-111 -50q-63 -29 -92 -69t-29 -111z" />
<glyph unicode="b" horiz-adv-x="1226" d="M43 1448l23 43q4 10 12 12t16 2h328q23 0 36 -10t13 -41v-311v-66v-129q6 6 10 6l14.5 14.5t36.5 22.5q51 27 91 33q27 8 52 11t48 3q119 0 199 -28q71 -33 143 -99q66 -66 115 -182q28 -72 28 -173v-7q0 -35 -7 -73t-17 -81q-10 -47 -29.5 -89t-46.5 -85 q-41 -55 -113 -115q-63 -55 -164 -90q-59 -24 -193 -24h-11h-23l-180 8v2h-168h-3q-54 0 -54 61v58v4v4v76v14v25v4v164v356v518q0 33 -6.5 54.5t-20.5 33.5t-38.5 20.5t-61.5 14.5q-12 5 -24 13q-8 5 -8 13q0 6 3 13zM471 229q0 -14 2 -24t2 -19q4 -18 18.5 -36.5 t38.5 -34.5q23 -16 44.5 -22.5t46.5 -6.5q55 0 108 20q27 10 47.5 21.5t34.5 26.5q23 23 37 42t24 44q18 35 28 67.5t16 61.5q4 41 7 71.5t3 55.5q0 96 -39 196q-23 49 -51.5 86t-63.5 62q-74 47 -162 47q-29 0 -58.5 -7.5t-68.5 -21.5q-6 -6 -14 -6v-45v-467v-14v-97z" />
<glyph unicode="c" horiz-adv-x="1013" d="M37 512q0 119 41 217t117.5 169t186.5 111t245 40q76 0 137 -7.5t115 -19.5q33 -8 51 -24.5t14 -39.5v-159q0 -6 -3 -12.5t-7 -10.5l-45 -28q-6 -4 -14.5 5t-17.5 25.5t-20.5 36t-21.5 35.5q-57 88 -186 88q-72 0 -128.5 -33t-95 -88t-59 -131t-20.5 -162 q0 -82 20.5 -155.5t60 -130t99 -89t137.5 -32.5q90 0 147.5 32.5t112.5 92.5q8 6 20.5 5t23.5 -7.5t17 -16.5q3 -5 4 -11q0 -5 -3 -11l-66 -133q-8 -14 -16.5 -27.5t-24.5 -24.5q-18 -8 -46 -15t-61.5 -13t-67.5 -9.5t-65 -3.5q-141 0 -249.5 43t-182 117t-111.5 171 t-38 206z" />
<glyph unicode="d" horiz-adv-x="1247" d="M20 465q0 117 45.5 222.5t127 185t193.5 128t245 48.5q39 0 81 -7.5t91 -17.5v262q0 33 -6 53.5t-20.5 33.5t-39 20.5t-59.5 15.5q-16 4 -27.5 12.5t-1.5 26.5l19 41q4 12 12 14t18 2h322q57 0 57 -63v-1217q0 -55 15.5 -74.5t50.5 -33.5q12 -10 25.5 -15.5t23.5 -10.5 t14 -13q2 -3 2 -8q0 -6 -4 -15l-10 -39q-10 -16 -41 -16h-291q-57 0 -57 63v136h-4q-25 -43 -62 -84t-84 -72t-100 -49.5t-111 -18.5q-88 0 -164.5 36t-134 101.5t-91.5 154.5t-34 198zM309 506q0 -74 16.5 -139.5t45 -114.5t69.5 -77t90 -28q55 0 104.5 26t87.5 80 t60.5 139t22.5 202q0 82 -8.5 146.5t-30 109.5t-59.5 68.5t-97 23.5q-72 0 -128 -39t-94 -101.5t-58.5 -140t-20.5 -155.5z" />
<glyph unicode="e" horiz-adv-x="1028" d="M39 496q0 131 39 233t109.5 173t166.5 109t213 38q106 0 185 -34t132.5 -96.5t80 -148.5t26.5 -190q0 -25 -13 -52.5t-36 -27.5h-612q0 -76 12 -144.5t44 -120t84 -82t132 -30.5q90 0 146.5 33.5t113.5 93.5q6 8 19.5 7t26 -8t18.5 -18.5t0 -23.5l-64 -133 q-10 -14 -21.5 -28.5t-27.5 -25.5q-16 -8 -45 -15t-61.5 -13t-66.5 -9t-65 -3q-139 0 -240.5 40.5t-167 111.5t-97 165t-31.5 199zM330 612h336q43 0 61 22.5t18 65.5q0 70 -16 117t-41.5 76t-58.5 41t-66 12q-55 0 -98 -27.5t-74 -73.5t-46 -106.5t-15 -126.5z" />
<glyph unicode="f" horiz-adv-x="886" d="M33 35l12 35q6 16 17.5 20t21.5 8q39 8 71.5 35t32.5 86v688h-139v117h139v98q0 61 25 113.5t62.5 93.5t85 72t94.5 49q41 20 94 35.5t100 19.5q9 1 19 1q19 0 42 -3q33 -4 50 -20l96 -146q4 -5 4 -11q0 -9 -12 -21l-55 -56q-8 -8 -18.5 -5t-20.5 7l-78 45q-33 16 -70 44 t-78 28q-39 0 -53 -28.5t-14 -88.5v-227h280v-76l-41 -41h-239v-688q0 -66 27.5 -87t103.5 -38q20 -4 24.5 -14t-2.5 -23l-16 -41q-10 -16 -35 -16h-504q-12 0 -23 6q-6 3 -6 13q0 6 3 16z" />
<glyph unicode="g" horiz-adv-x="1138" d="M39 451q0 121 45 229t126 190t192.5 130.5t246.5 48.5q104 0 181 -15.5t143 -40.5q25 -10 46 -20t37.5 -26.5t26 -46.5t9.5 -79v-710q0 -299 -146.5 -461t-433.5 -162q-82 0 -142.5 7t-107.5 19.5t-83 28t-68 31.5q-29 16 -44.5 30.5t3.5 47.5l47 84q14 23 25.5 42 t31.5 3q8 -6 31.5 -30.5t63.5 -50.5t98.5 -46.5t136.5 -20.5q154 0 234.5 100.5t80.5 299.5v209h-4q-25 -57 -65.5 -105.5t-92 -84.5t-108.5 -56.5t-115 -20.5q-92 0 -165.5 40t-124 105.5t-78 151.5t-27.5 179zM328 506q0 -74 13 -139.5t39 -114.5t63.5 -77t84.5 -28 q45 0 96.5 34t94.5 95.5t71.5 149.5t28.5 197q0 66 -7 124t-27.5 101t-58.5 68.5t-101 25.5q-72 0 -127.5 -39t-93 -101.5t-57 -140t-19.5 -155.5z" />
<glyph unicode="h" horiz-adv-x="1353" d="M51 35l12 35q6 16 17.5 20t21.5 8q39 8 72 35t33 86v1067q0 33 -6 53.5t-20.5 33.5t-39 20.5t-59.5 15.5q-16 5 -28 13q-6 5 -6 11t5 15l19 41q4 12 12 14t18 2h328q16 0 32.5 -4t16.5 -37v-639h4q35 57 84 99.5t103.5 70t111 41t105.5 13.5q137 0 214 -83t77 -268v-479 q0 -66 27.5 -87t103.5 -38q20 -4 24 -14q2 -4 2 -8q0 -7 -4 -15l-16 -41q-10 -16 -35 -16h-350q-10 0 -17.5 4t-7.5 31v184v369q0 84 -10 138t-30.5 86t-50.5 44t-69 12q-53 0 -101 -28.5t-85 -92t-58.5 -165t-21.5 -246.5v-117q0 -66 24.5 -87t94.5 -38q16 -4 20.5 -14 t-0.5 -23l-16 -41q-6 -16 -31 -16h-493q-12 0 -24 6q-7 4 -6 13q0 7 3 16z" />
<glyph unicode="i" horiz-adv-x="634" d="M27 967l18 41q4 12 12.5 14t18.5 2h377v-805q0 -66 27.5 -87t103.5 -38q20 -4 24 -14q2 -4 2 -8q0 -7 -4 -15l-16 -41q-10 -16 -35 -16h-348q-12 0 -19.5 4t-7.5 31v184v586q0 33 -6 53.5t-20.5 33.5t-39 20.5t-59.5 15.5q-15 4 -27 12q-6 4 -6 11t5 16zM166 1323 q0 63 45 107.5t106 44.5t106.5 -45.5t45.5 -106.5q0 -29 -12.5 -56.5t-33 -49t-47 -34t-57.5 -12.5q-63 0 -108 44.5t-45 107.5z" />
<glyph unicode="j" horiz-adv-x="507" d="M25 967l18 41q4 12 12 14t19 2h377v-1098q0 -129 -44.5 -214t-106.5 -134t-134 -69.5t-127 -20.5v102q35 18 63.5 47t44.5 64q10 33 20.5 100.5t10.5 139.5v864q0 33 -6 53.5t-20.5 33.5t-39 20.5t-59.5 15.5q-16 4 -27 12q-6 4 -6 11t5 16zM164 1323q0 63 45 107.5 t106 44.5t106.5 -45.5t45.5 -106.5q0 -29 -12.5 -56.5t-33 -49t-47 -34t-57.5 -12.5q-63 0 -108 44.5t-45 107.5z" />
<glyph unicode="k" horiz-adv-x="1253" d="M51 35l12 35q6 16 17.5 20t21.5 8q39 8 72 35t33 86v1067q0 33 -6 53.5t-20.5 33.5t-39 20.5t-59.5 15.5q-16 5 -28 13q-6 5 -6 11t5 15l19 41q4 12 12 14t18 2h328q16 0 32.5 -4t16.5 -37v-835q121 104 216.5 203.5t168.5 191.5h248q31 0 36 -20.5t5 -42.5 q0 -23 -24.5 -35.5t-61.5 -23.5t-78 -28.5t-71 -48.5l-193 -186q49 -61 99 -125.5t99.5 -126t95.5 -117t89 -100.5q45 -47 74.5 -68.5t60.5 -33.5v-68h-346l-414 561h-4v-342q0 -66 24.5 -87t94.5 -38q16 -4 20.5 -14t-0.5 -23l-16 -41q-6 -16 -31 -16h-493q-12 0 -24 6 q-7 4 -6 13q0 7 3 16z" />
<glyph unicode="l" horiz-adv-x="638" d="M31 1448l18 41q4 12 12.5 14t18.5 2h326q25 0 38 -10t13 -41v-1235q0 -66 27.5 -87t103.5 -38q20 -4 24 -14q2 -4 2 -8q0 -7 -4 -15l-16 -41q-10 -16 -35 -16h-348q-12 0 -19.5 5t-7.5 30v184v1067q0 33 -6 53.5t-20.5 33.5t-39 20.5t-59.5 15.5q-15 5 -27 13q-6 4 -6 11 q0 6 5 15z" />
<glyph unicode="m" horiz-adv-x="2027" d="M55 35l13 35q6 16 17 20t21 8q39 8 72 35t33 86v586q0 33 -6 53.5t-20.5 33.5t-39 20.5t-59.5 15.5q-16 4 -28 12q-6 4 -6 12q0 6 5 15l19 41q4 12 12 14t18 2h330q16 0 32.5 -4t16.5 -37v-147h4q39 57 86.5 98t96.5 66.5t99 37t93 11.5q74 0 123 -15.5t82 -43 t52.5 -63.5t33.5 -75q68 92 166 144.5t209 52.5q139 0 218 -80t79 -244v-506q0 -66 27.5 -87t103.5 -38q20 -4 24 -14q2 -4 2 -8q0 -7 -4 -15l-16 -41q-10 -16 -35 -16h-350q-10 0 -17.5 4t-7.5 31v184v428q0 47 -7 87t-23.5 70t-47 47t-75.5 17t-89 -28.5t-79 -91 t-56.5 -161t-21.5 -235.5v-133q0 -66 25.5 -87t93.5 -38q16 -4 20 -14t0 -23l-16 -41q-6 -16 -31 -16h-340q-10 0 -17 5t-7 30v184v428q0 47 -7.5 87t-23.5 70t-47 47t-76 17t-89 -28.5t-79 -91t-56.5 -161t-21.5 -235.5v-133q0 -66 24.5 -87t94.5 -38q16 -4 20.5 -14 t0.5 -23l-17 -41q-6 -16 -31 -16h-493q-12 0 -24 6q-7 4 -6 13q0 7 3 16z" />
<glyph unicode="n" horiz-adv-x="1372" d="M51 35l12 35q6 16 17.5 20t21.5 8q39 8 72 35t33 86v586q0 33 -6 53.5t-20.5 33.5t-39 20.5t-59.5 15.5q-16 4 -28 12q-6 4 -6 12q0 6 5 15l19 41q4 12 12 14t18 2h328q16 0 32.5 -4t16.5 -37v-158h4q35 57 84 99.5t103.5 70t111 41t105.5 13.5q137 0 214 -83t77 -268 v-479q0 -66 27.5 -87t103.5 -38q20 -4 24 -14q2 -4 2 -8q0 -7 -4 -15l-16 -41q-10 -16 -35 -16h-350q-10 0 -17.5 5t-7.5 30v184v369q0 84 -10 138t-30.5 86t-50.5 44t-69 12q-53 0 -101 -28.5t-85 -92t-58.5 -165t-21.5 -246.5v-117q0 -66 24.5 -87t94.5 -38 q16 -4 20.5 -14t-0.5 -23l-16 -41q-6 -16 -31 -16h-493q-12 0 -24 6q-7 4 -6 13q0 7 3 16z" />
<glyph unicode="o" horiz-adv-x="1173" d="M39 492q0 121 43 223t120 176t181 116t229 42q123 0 220.5 -43t164 -116t102.5 -166t36 -192q0 -111 -40 -211t-115 -176.5t-181.5 -123t-239.5 -46.5q-127 0 -223 46.5t-163 120t-100.5 165.5t-33.5 185zM328 563q0 -119 23.5 -208t61.5 -149.5t85 -90t96 -29.5 q76 0 125 37t76.5 96.5t39 133t11.5 147.5q0 100 -19.5 181t-53.5 138.5t-81 88t-102 30.5q-66 0 -115 -33t-82 -86t-49 -120.5t-16 -135.5z" />
<glyph unicode="p" horiz-adv-x="1280" d="M47 -477l12 35q6 16 17.5 20t21.5 8q39 8 72 35t33 86v1098q0 33 -6.5 53.5t-20.5 33.5t-38.5 20.5t-59.5 15.5q-16 4 -28 12q-6 4 -6 12q0 6 5 15l19 41q4 12 12 14t18 2h324q31 0 43 -16.5t12 -46.5v-123h4q59 98 163 154.5t220 56.5q92 0 166 -40t124 -105.5 t78 -151.5t28 -179q0 -127 -46.5 -236.5t-129.5 -189t-195.5 -126t-247.5 -46.5q-39 0 -78 5.5t-88 19.5v-293q0 -66 37 -87t135 -38q29 -4 34 -14t-3 -23l-23 -41q-12 -16 -45 -16h-536q-12 0 -24 6q-6 4 -6 13q0 7 3 16zM475 403q0 -68 8.5 -126t30 -101t60 -68.5 t100.5 -25.5q74 0 129 39t93 101.5t56.5 140t18.5 157.5q0 63 -13.5 129t-43 119t-74 87t-105.5 34q-68 0 -116 -41t-80.5 -108.5t-48 -154.5t-15.5 -182z" />
<glyph unicode="q" horiz-adv-x="1265" d="M18 465q0 117 45.5 222.5t125 185t191.5 128t245 48.5q106 0 184 -15.5t143 -40.5q27 -12 48.5 -21t37 -26.5t24.5 -46.5t9 -78v-1114q0 -66 27.5 -87t103.5 -38q20 -4 24 -14q2 -4 2 -9q0 -7 -3 -14l-17 -41q-10 -16 -34 -16h-340q-16 0 -25.5 3t-9.5 32v184v492h-4 q-25 -43 -62 -84t-84 -72t-100 -49.5t-111 -18.5q-88 0 -164.5 36t-133 101.5t-89.5 154.5t-33 198zM307 506q0 -74 15.5 -139.5t44 -114.5t68.5 -77t89 -28q53 0 103.5 29t88.5 85t60.5 140t22.5 193q0 82 -8.5 146.5t-30 109.5t-59.5 68.5t-97 23.5q-72 0 -127 -39 t-93 -101.5t-57.5 -140t-19.5 -155.5z" />
<glyph unicode="r" horiz-adv-x="905" d="M47 35l14 37q6 14 16.5 19t20.5 9q39 6 72 33t33 86v586q0 33 -6.5 53.5t-20.5 32.5t-38.5 20.5t-59.5 14.5q-14 4 -26 12q-6 4 -6 12q0 7 5 17l19 39q4 14 12 16t16 2h330q16 0 33.5 -4t17.5 -37v-111q92 92 151 133.5t120 41.5q66 0 96.5 -38t30.5 -91 q0 -29 -6.5 -55.5t-20.5 -49.5q-18 -20 -41 -32.5t-51 -12.5q-23 0 -40.5 8t-35.5 17q-23 10 -50.5 11t-49.5 -5q-16 -4 -34 -17.5t-34 -36.5q-14 -23 -21.5 -46t-11.5 -48v-4q-2 -10 -2 -20.5v-20.5v19q-3 -28 -3 -59v-15q1 -39 1 -82v-250q0 -66 36 -87t134 -38 q29 -4 35 -14t-4 -23l-23 -41q-12 -16 -45 -16h-534q-12 0 -24 5q-8 3 -7 15q0 6 2 15z" />
<glyph unicode="s" horiz-adv-x="835" d="M43 80v199v29.5t10 19.5l41 14q8 2 13.5 -9t10.5 -30.5t13 -45.5t25 -52q25 -55 76 -93t118 -38q82 0 132 45q48 43 48 105q0 35 -24 71q-22 33 -53 62.5t-69 57t-71 52.5q-41 29 -86 59.5t-83 66.5t-63.5 80t-25.5 101q0 53 23.5 103.5t72 88.5t122 60.5t176.5 22.5 q66 0 129 -7.5t106 -17.5q53 -12 53 -57v-154q0 -4 -3 -9t-7 -9l-35 -29q-4 -4 -12 6t-17.5 26.5t-20.5 37t-24 36.5q-25 39 -64.5 59.5t-100.5 20.5q-27 0 -51.5 -11t-42 -27.5t-27.5 -36t-10 -33.5q2 -29 20 -52.5t49 -48t71 -52t85 -64.5q74 -61 122 -106.5t76.5 -85.5 t40 -76.5t11.5 -82.5q0 -82 -38 -139t-96.5 -93t-131 -52.5t-142.5 -16.5q-84 0 -161.5 13.5t-131.5 44.5q-16 10 -34.5 22.5t-18.5 24.5z" />
<glyph unicode="t" horiz-adv-x="792" d="M18 907v117h175v205l176 94q29 15 60 15h3q32 -1 33 -19v-295h311v-76l-41 -41h-270v-602q0 -194 147 -194h2q18 0 46 4t34 8q10 4 20.5 6t14.5 -6l29 -57q8 -16 -6 -23l-60 -31q-35 -16 -78 -26.5t-82 -10.5q-340 0 -339 326v606h-175z" />
<glyph unicode="u" horiz-adv-x="1359" d="M45 967l18 41q4 12 12.5 14t18.5 2h328q16 0 32.5 -8t16.5 -47v-533q0 -84 9 -139t29.5 -88t51.5 -46t72 -13q51 0 100 39.5t82 99.5q41 74 51.5 175t10.5 224v117q0 51 -23 78.5t-92 44.5q-16 4 -27.5 12t-1.5 27l19 41q4 12 7 14t13 2h328q16 0 32.5 -8t16.5 -47v-756 q0 -39 9 -55.5t20 -26.5q18 -18 46.5 -24.5t52 -10.5t35.5 -14q6 -5 6 -13q0 -9 -7 -22l-13 -29q-8 -16 -24.5 -17t-36.5 -1h-311q-16 0 -32.5 4t-16.5 37v113l-78 -60q-63 -49 -142 -84t-147 -35q-154 0 -232.5 83t-78.5 268v479q0 33 -6.5 53.5t-20.5 33.5t-38.5 20.5 t-59.5 15.5q-16 4 -28 12q-6 4 -6 12q0 6 5 15z" />
<glyph unicode="v" horiz-adv-x="1206" d="M27 950l18 49q8 25 39 25h448q23 0 33 -7t2 -28l-16 -41q-6 -14 -29.5 -23.5t-45.5 -21.5q-22 -13 -34 -35q-5 -9 -4 -21q0 -18 11 -44l204 -488l242 508q12 27 6 45.5t-24.5 29.5t-42 18.5t-43 13.5t-31.5 14t-6 21l12 22q4 10 12 23.5t21 13.5h321q28 0 48 -5 q14 -3 13 -18q0 -7 -3 -18l-11 -35q-4 -14 -14 -21t-23.5 -13.5t-26.5 -14.5t-26 -20q-10 -12 -20 -32t-29 -59l-364 -759q-6 -12 -11.5 -20.5t-17.5 -8.5h-100h-4q-9 0 -15 8q-6 10 -12 25l-340 755q-31 70 -52.5 91.5t-41.5 31.5q-22 9 -36 17q-9 5 -9 13q0 4 2 9z" />
<glyph unicode="w" horiz-adv-x="1771" d="M39 950l18 49q8 25 39 25h447q33 0 47 -8t0 -33l-17 -35q-8 -14 -33.5 -20t-51.5 -18t-40 -34q-7 -10 -6 -25q0 -18 9 -44l153 -445l262 625q6 14 12.5 24.5t18.5 8.5h100q12 0 17.5 -8t11.5 -21l238 -651h4l178 510q14 41 -11.5 55.5t-59.5 19.5t-61.5 10t-17.5 30 l27 36q4 6 12 14.5t23 8.5h328q20 0 36 -3q11 -2 12 -13q0 -5 -3 -13l-17 -47q-6 -14 -13 -18t-17.5 -8t-24.5 -11.5t-33 -25.5q-20 -16 -49 -97l-268 -755q-6 -12 -11.5 -22.5t-17.5 -10.5h-100q-12 0 -18.5 11.5t-12.5 25.5l-250 672l-289 -676q-6 -12 -11 -22.5 t-17 -10.5h-101q-12 0 -18 11.5t-12 25.5l-279 751q-25 66 -47.5 89.5t-42.5 33.5q-23 9 -36 17q-9 5 -9 14q0 4 2 8z" />
<glyph unicode="x" horiz-adv-x="1308" d="M51 35l10 33q4 12 17.5 17t30 8t34 8t29.5 18q25 23 43 40t39 42l256 303l-242 291q-18 23 -36.5 46t-47.5 44q-14 10 -30.5 17t-30.5 16.5t-20.5 21.5t1.5 31l13 30q8 16 23.5 19.5t33.5 3.5h391q39 0 51.5 -7t1.5 -30l-12 -31q-6 -14 -25.5 -23t-35 -19.5t-20.5 -27 t18 -42.5l143 -176l172 190q31 37 18.5 51.5t-38 22.5t-48 14t-10.5 25l13 20q4 8 10 20.5t26 12.5h297h25.5t23 -3t12.5 -10t-3 -24l-10 -31q-4 -12 -16.5 -19t-29 -12t-35 -10.5t-32.5 -17.5q-12 -10 -31.5 -27.5t-46.5 -46.5l-219 -245l287 -357q31 -39 53 -62.5 t49 -33.5q12 -6 32.5 -7t38.5 -4q18 -4 30 -10q8 -4 8 -11q0 -4 -2 -9l-23 -57q-14 -27 -47 -27h-432q-31 0 -41 8t-2 31l8 31q4 14 22.5 20t34 13.5t21.5 19.5t-13 37l-196 258l-199 -244q-31 -37 -15.5 -54.5t43.5 -26.5t52.5 -16t11.5 -26l-12 -20q-4 -8 -12 -19.5 t-41 -11.5h-328q-33 0 -40 6q-4 3 -4 11q0 7 3 18z" />
<glyph unicode="y" horiz-adv-x="1212" d="M43 950l18 49q8 25 39 25h449q23 0 33 -7t2 -28l-17 -41q-6 -14 -29.5 -23.5t-45 -21.5t-34.5 -35q-4 -8 -4 -21q0 -18 11 -44l207 -500l239 520q12 27 6 45.5t-24.5 29.5t-42 18.5t-43 13.5t-31.5 14t-6 21l12 22q4 10 12.5 23.5t20.5 13.5h322q27 0 47 -5q13 -3 13 -18 q0 -8 -3 -18l-10 -35q-4 -14 -14.5 -21t-23.5 -13.5t-26.5 -14.5t-25.5 -20q-10 -12 -20.5 -32t-29.5 -59l-550 -1153q-29 -66 -66 -106.5t-104 -40.5h-93q-23 0 -39 4t-26 29l-25 57q-8 20 3.5 26.5t29.5 10.5l100 31q29 8 67 40.5t73 110.5l104 226l-338 765 q-31 70 -52.5 91.5t-41.5 31.5q-23 10 -36 17q-9 6 -9 14q0 4 2 8z" />
<glyph unicode="z" horiz-adv-x="1028" d="M41 76l633 839h-266q-51 0 -85 -27.5t-55.5 -59t-34 -55t-24.5 -13.5l-37 31q-10 10 -10 18v164q-4 23 13.5 37t45.5 14h729v-96l-579 -811h317q68 0 108 24.5t62.5 53t33.5 51t21 20.5l52 -16q12 -4 12 -17v-186q0 -23 -26.5 -35t-67.5 -12h-807z" />
<glyph unicode="{" horiz-adv-x="550" d="M12 543v4q47 14 78 35.5t48.5 51.5t23.5 70.5t6 94.5v395q0 100 21.5 160.5t66.5 94.5t114.5 45t166.5 11v-4q-100 -27 -135 -92.5t-35 -181.5v-396q0 -59 -6.5 -105t-24 -81t-50 -59.5t-85.5 -38.5v-4q55 -16 88 -42t50 -65t22.5 -88t5.5 -110v-371q0 -117 35.5 -185.5 t134.5 -87.5v-4q-106 -4 -177 9.5t-114 51.5t-60.5 103.5t-17.5 169.5v361q0 55 -5 97t-21.5 72.5t-47.5 52t-82 36.5z" />
<glyph unicode="|" horiz-adv-x="268" d="M55 -512v2048h160v-2048h-160z" />
<glyph unicode="}" horiz-adv-x="552" d="M16 -406q98 18 134 87t36 186v371q0 61 5.5 110t22.5 88t50 64.5t88 42.5v4q-53 14 -86 38.5t-50 59.5t-23.5 81t-6.5 105v396q0 117 -34.5 182.5t-135.5 91.5v4q96 0 166 -11t115 -45t66.5 -94.5t21.5 -160.5v-395q0 -53 6 -94t23.5 -71t48.5 -51.5t78 -35.5v-4 q-51 -14 -82 -36t-47.5 -52.5t-21.5 -72.5t-5 -97v-361q0 -104 -17.5 -169.5t-60.5 -103.5t-113.5 -51.5t-177.5 -9.5v4z" />
<glyph unicode="~" horiz-adv-x="1071" d="M41 449q29 45 57.5 84.5t62.5 67.5t74.5 44.5t92.5 16.5q53 0 110.5 -19.5t116.5 -42.5q57 -25 108.5 -44t86.5 -19q37 0 63.5 11t47 29.5t36.5 40t29 44.5l106 -72q-29 -43 -56.5 -80t-59 -64.5t-69.5 -43t-85 -15.5q-57 0 -107.5 19.5t-99.5 44.5q-51 23 -103.5 42 t-117.5 19q-41 0 -71 -14.5t-51.5 -35t-37.5 -44t-29 -43.5z" />
<glyph unicode="&#xa1;" horiz-adv-x="405" d="M49 895q0 33 12.5 60.5t34 48t49 33t58.5 12.5q63 0 108 -46.5t45 -107.5q0 -31 -12 -58.5t-32.5 -49t-49.5 -34t-59 -12.5q-31 0 -58.5 12.5t-49 33t-34 49t-12.5 59.5zM51 -391q14 98 27.5 221t25 255t20.5 265t19 250h119q8 -117 18.5 -250t21.5 -265t24.5 -255 t27.5 -221q8 -47 -34.5 -68.5t-116.5 -21.5t-117 21.5t-35 68.5z" />
<glyph unicode="&#xa2;" horiz-adv-x="972" d="M25 512q0 119 39.5 217t115.5 169t183.5 111t242.5 40h4l29 139l106 -23l-26 -123q39 -2 72.5 -7t66.5 -13t51.5 -24.5t14.5 -39.5v-159q0 -6 -3 -12.5t-8 -10.5l-45 -28q-6 -4 -14 5t-17.5 25.5t-20.5 36t-21 35.5q-37 55 -101 74l-170 -789q45 -18 99 -18 q90 0 147 32.5t113 92.5q8 6 20 5t23.5 -7.5t17.5 -16.5t0 -22l-65 -133q-8 -14 -16.5 -27.5t-24.5 -24.5q-18 -8 -46 -15t-62 -13t-67.5 -9.5t-64.5 -3.5q-29 0 -55.5 2.5t-50.5 6.5l-37 -174l-101 26l35 170q-90 27 -157.5 77t-113.5 116.5t-69.5 146.5t-23.5 166z M305 524q0 -102 32 -190t91 -141l158 743q-66 -4 -118 -38t-88 -89t-55.5 -129t-19.5 -156z" />
<glyph unicode="&#xa3;" horiz-adv-x="1208" d="M27 0v66q49 33 98 91t68 169q8 49 12 94t8 89t9 90t16 101h-191v123h197l26 162q16 104 56.5 190.5t97.5 150t132 98t161 34.5q78 0 130 -6t109 -27q23 -8 33 -23.5t21 -43.5l37 -119q6 -16 -13 -20l-90 -15q-16 -4 -26 8q-23 31 -42.5 61t-41 52.5t-47 36.5t-60.5 14 q-45 0 -77 -27.5t-53.5 -71.5t-33.5 -98.5t-18 -105.5l-27 -250h287v-123h-295l-12 -112q-4 -45 -16.5 -102.5t-37 -117t-61.5 -114.5t-88 -96l4 -4q109 25 182.5 36t120.5 11q68 0 113 -4t78.5 -8.5t61.5 -8.5t63 -4t53 9.5t25.5 23.5t5 32.5t-4.5 37.5l-10 81 q-2 10 -1 21.5t7 15.5l74 41q4 4 14.5 6t18.5 -12l61 -110q10 -23 5 -45.5t-11 -38.5q-12 -35 -43 -80t-72 -86t-88 -69t-92 -28q-61 0 -149 19.5t-196.5 35t-232.5 13.5t-255 -43z" />
<glyph unicode="&#xa4;" horiz-adv-x="1167" d="M47 299l121 121q-43 55 -67.5 130t-24.5 161t22.5 165.5t69.5 135.5l-121 121l113 114l123 -121q57 43 139 69t168 26q82 0 158.5 -26t130.5 -69l122 121l113 -112l-113 -115q43 -59 67 -139t24 -166t-24 -163t-71 -130l121 -121l-110 -119l-121 121q-55 -47 -134 -72.5 t-165 -25.5q-90 0 -169 25.5t-138 74.5l-121 -121zM246 713q0 -72 27.5 -133.5t73.5 -107.5t108.5 -71.5t132.5 -25.5t131 27.5t106 73.5t71 108.5t26 132.5q0 68 -27 128t-72 106t-105 73t-128 27q-72 0 -134.5 -27t-109.5 -72t-73.5 -107.5t-26.5 -131.5z" />
<glyph unicode="&#xa5;" horiz-adv-x="1228" d="M33 1372l16 43q4 12 12.5 15.5t20.5 3.5h414q10 0 17 -6.5t3 -20.5l-14 -45q-4 -14 -22.5 -21.5t-37.5 -29.5q-12 -12 -19 -35t5 -68l225 -518l262 531q23 47 9.5 70.5t-37.5 37.5q-25 16 -41.5 25.5t-7.5 27.5l16 35q4 4 7 9.5t13 5.5h306q27 0 20 -29l-10 -37 q-4 -16 -24.5 -24.5t-32.5 -14.5q-23 -10 -49.5 -33.5t-57.5 -91.5l-205 -414h197v-94h-242l-20 -39q-10 -23 -18.5 -48t-12.5 -54h293v-94h-301v-240q0 -66 24.5 -87t92.5 -38q18 -4 22 -14t-2 -23l-14 -41q-10 -16 -31 -16h-467q-10 0 -20.5 6t-4.5 29l13 35q4 16 14 20 t21 8q35 8 63.5 35t28.5 86v240h-301v94h295l-62 141h-233v94h194l-176 412q-16 37 -30.5 59.5t-27 36t-23.5 20.5t-25 15q-16 8 -28.5 16.5t-6.5 24.5z" />
<glyph unicode="&#xa6;" horiz-adv-x="268" d="M55 358h160v-716h-160v716zM55 666v716h160v-716h-160z" />
<glyph unicode="&#xa7;" horiz-adv-x="1077" d="M45 600q0 70 32 124t84 88t120.5 47t144.5 3l35 4q-61 45 -115.5 84t-95.5 79t-65.5 82t-24.5 93q0 63 33.5 111.5t88 80t123 47t140.5 15.5q31 0 79 -3t96 -10t86 -18.5t50 -25.5l102 -135q8 -16 0 -30.5t-24 -23.5l-57 -36q-18 -12 -29.5 -10.5t-22.5 10.5l-135 114 q-27 23 -72 50.5t-88 27.5q-18 0 -44.5 -4t-50 -14.5t-40 -27.5t-16.5 -44q0 -61 41 -108.5t106 -100.5l219 -156q51 -35 104.5 -75.5t96.5 -89t70.5 -100.5t27.5 -107q0 -68 -32.5 -119t-86 -82t-124 -42t-146.5 1l-14 -4q55 -41 105.5 -77t89 -76t61.5 -85t23 -102 q0 -72 -46.5 -129t-119.5 -92q-61 -29 -124 -36t-124 -7q-47 0 -96.5 5t-95.5 13t-86 17.5t-70 19.5l-111 133q-10 31 7.5 45.5t31.5 24.5l35 22q16 16 36.5 21.5t43.5 -17.5l143 -125q27 -23 66 -41t125 -18q61 0 110 27.5t49 87.5q0 43 -25.5 80t-65.5 71.5t-91 69.5 t-102 74q-59 43 -123 86t-118 90t-89 101t-35 122zM283 657q0 -57 36.5 -102t77.5 -80t94.5 -62.5t131.5 -27.5q86 0 124.5 33t38.5 86q0 20 -10 43.5t-26.5 46t-36 43t-37.5 37.5q-41 37 -99.5 68.5t-138.5 31.5q-57 0 -106 -31t-49 -86z" />
<glyph unicode="&#xa8;" horiz-adv-x="776" d="M49 1288q0 43 35 79t80 36q47 0 82 -34t35 -81t-35 -82t-82 -35t-81 35t-34 82zM496 1288q0 43 34.5 79t79.5 36q47 0 82 -34t35 -81t-35 -82t-82 -35t-80.5 35t-33.5 82z" />
<glyph unicode="&#xa9;" horiz-adv-x="1558" d="M39 717q0 152 58.5 287t159.5 236t235 159.5t288 58.5t288 -58.5t235.5 -159.5t160 -235.5t58.5 -287.5q0 -154 -58.5 -288t-160 -235.5t-235.5 -160t-288 -58.5t-288 58.5t-235 160t-159.5 235.5t-58.5 288zM160 717q0 -127 50 -239.5t134 -196.5t196.5 -134.5 t239.5 -50.5q125 0 239 50.5t197.5 134.5t134 196.5t50.5 239.5q0 125 -50.5 238.5t-134 197.5t-197.5 134t-239 50q-127 0 -239.5 -50t-196.5 -135t-134 -197.5t-50 -237.5zM344 735q0 86 36 161t98.5 130t147.5 88t185 33q55 0 101 -8.5t83 -20.5t63.5 -24.5t41.5 -20.5 q8 -6 8 -20v-70q0 -10 -6 -16l-49 -29q-12 -6 -22.5 12.5t-34 43t-64.5 46t-115 21.5q-129 0 -183 -87t-54 -231q0 -174 68.5 -253.5t193.5 -79.5q72 0 128 22.5t93 61.5q6 6 17.5 4t20.5 -8.5t15 -15.5t2 -15l-39 -86q-6 -10 -10 -17.5t-14 -13.5q-16 -10 -83 -22.5 t-138 -12.5q-111 0 -202 31t-154.5 88t-98.5 135t-35 174z" />
<glyph unicode="&#xaa;" horiz-adv-x="890" d="M41 1098q0 74 28.5 139.5t83 114.5t130 77.5t168.5 28.5q74 0 125 -9t94 -26q33 -12 55.5 -27.5t22.5 -74.5v-354q0 -39 15 -51.5t54 -22.5q16 -6 28.5 -11t4.5 -20l-10 -24q-6 -10 -27 -11h-233q-37 -2 -37 39v99h-4q-31 -63 -99.5 -107.5t-144.5 -44.5 q-59 0 -106.5 23.5t-80 63.5t-50 91t-17.5 107zM258 1137q0 -86 30.5 -145.5t86.5 -59.5q51 0 90 45t55 113q12 41 17.5 67.5t5.5 46.5q0 37 -4 70t-16.5 58.5t-35 39.5t-57.5 14q-41 0 -73.5 -22.5t-54 -58t-33 -79.5t-11.5 -89z" />
<glyph unicode="&#xab;" horiz-adv-x="884" d="M18 487l334 312q14 14 36 34.5t38 20.5q12 0 15 -8t3 -19q0 -16 -26.5 -63t-61 -102.5t-68.5 -104.5t-50 -70q14 -18 47.5 -67t68.5 -104.5t63.5 -102.5t33.5 -63q0 -10 -4.5 -19.5t-20.5 -9.5t-38.5 21.5t-43.5 43.5zM401 487l334 312q14 14 36 34.5t38 20.5q12 0 15 -8 t3 -19q0 -16 -26.5 -63t-61 -102.5t-68.5 -104.5t-50 -70q14 -18 47.5 -67t68.5 -104.5t63.5 -102.5t33.5 -63q0 -10 -4.5 -19.5t-20.5 -9.5t-38.5 21.5t-43.5 43.5z" />
<glyph unicode="&#xac;" horiz-adv-x="1091" d="M4 637v160h1032v-568h-159v408h-873z" />
<glyph unicode="&#xad;" horiz-adv-x="620" d="M55 399v176h510v-176h-510z" />
<glyph unicode="&#xae;" horiz-adv-x="1558" d="M39 717q0 152 58.5 287t159.5 236t235 159.5t288 58.5t288 -58.5t235.5 -159.5t160 -235.5t58.5 -287.5q0 -154 -58.5 -288t-160 -235.5t-235.5 -160t-288 -58.5t-288 58.5t-235 160t-159.5 235.5t-58.5 288zM160 717q0 -127 50 -239.5t134 -196.5t196.5 -134.5 t239.5 -50.5q125 0 239 50.5t197.5 134.5t134 196.5t50.5 239.5q0 125 -50.5 238.5t-134 197.5t-197.5 134t-239 50q-127 0 -239.5 -50t-196.5 -135t-134 -197.5t-50 -237.5zM418 1106l10 20q4 14 21 15h466q37 0 75 -11.5t71 -35t54.5 -58.5t21.5 -82q0 -74 -41 -138 t-127 -99q78 -129 144.5 -218t107.5 -110v-41h-211q-14 0 -21.5 10.5t-11.5 18.5l-191 303h-73v-205q0 -39 15 -50t60 -22q12 -2 15.5 -8t-0.5 -12l-10 -25q-6 -10 -21 -10h-332q-6 0 -13 4t-1 17l6 20q4 10 11.5 12t11.5 5q23 4 42 19t19 50v531q0 39 -18.5 55t-57.5 22 q-12 4 -19 8.5t-3 14.5zM713 758h69q59 -2 103.5 39t44.5 133q0 78 -37 105.5t-90 27.5h-90v-305z" />
<glyph unicode="&#xaf;" horiz-adv-x="915" d="M55 1253v140h805v-140h-805z" />
<glyph unicode="&#xb0;" horiz-adv-x="663" d="M39 1163q0 59 23.5 112.5t63.5 94.5t94 64.5t114 23.5q59 0 112.5 -23.5t93.5 -63.5t63.5 -94t23.5 -114q0 -59 -23.5 -112.5t-63.5 -93t-93.5 -63.5t-112.5 -24t-113.5 24t-94.5 63.5t-63.5 93t-23.5 112.5zM152 1163q0 -37 15 -69.5t40.5 -57t58.5 -39t68 -14.5 t67.5 15.5t57 40t40 57t15.5 67.5t-14.5 68t-39 58.5t-57 41t-69.5 15.5t-70 -14.5t-58.5 -40t-39.5 -58.5t-14 -70z" />
<glyph unicode="&#xb1;" horiz-adv-x="1064" d="M16 0v160h1033v-160h-1033zM16 674v160h437v438h159v-438h437v-160h-437v-438h-159v438h-437z" />
<glyph unicode="&#xb2;" horiz-adv-x="788" d="M41 584v104q47 45 106.5 86t112.5 94q29 27 68 67t74.5 86t61 95t25.5 96q0 37 -13 64t-31.5 42t-40 22.5t-39.5 7.5q-68 0 -106 -32t-54 -61l-37 -59q-6 -12 -16 -8l-39 16q-8 8 -9 17v116q0 16 17.5 29.5t42.5 30.5q29 23 93.5 42t131.5 19q59 0 116.5 -13t102.5 -39 t73 -67t28 -96q0 -59 -33 -115.5t-79 -105.5t-93 -87t-76 -58l-209 -156v-4h313q35 0 62 23.5t47.5 51t34.5 49t24 17.5l41 -20q4 -2 7.5 -8.5t1.5 -12.5l-80 -203q-6 -20 -23.5 -25t-46.5 -5h-559z" />
<glyph unicode="&#xb3;" horiz-adv-x="763" d="M38 737q1 4 11 15l39 32q18 14 29 2l71 -81q23 -25 52.5 -45.5t76.5 -20.5q78 0 131.5 45t53.5 127q0 63 -32 99t-77 55.5t-92 24.5t-80 7v70q47 4 90 18.5t76 38t52.5 57t19.5 79.5q0 39 -12.5 62.5t-31 36.5t-39 17t-34.5 4q-39 0 -68.5 -13t-49 -32.5t-32 -39 t-18.5 -31.5l-18 -37q-6 -14 -19 -6l-31 14q-8 4 -8 14v107q0 10 12.5 19t34.5 26q35 23 93.5 40t154.5 17q41 0 91.5 -9t95.5 -31.5t74.5 -60.5t29.5 -93q0 -37 -20.5 -72t-54.5 -62.5t-75.5 -48t-84.5 -28.5v-4q121 -4 199.5 -65.5t78.5 -156.5q0 -59 -29.5 -106t-82 -81 t-126 -52.5t-159.5 -18.5q-96 0 -160 18.5t-84 33.5l-47 104q-2 8 -1 12z" />
<glyph unicode="&#xb4;" horiz-adv-x="497" d="M23 1262l227 213q35 33 71.5 61.5t79.5 28.5q29 0 55.5 -26t26.5 -60q0 -41 -37.5 -71t-83.5 -58l-286 -162q-63 8 -53 74z" />
<glyph unicode="&#xb5;" horiz-adv-x="1341" d="M47 967l19 41q4 12 12 14t18 2h328q16 0 32.5 -8t16.5 -47v-533q0 -84 9.5 -139t29.5 -88t51 -46t72 -13q51 0 100 39.5t82 99.5q41 74 51.5 175t10.5 224v117q0 51 -22.5 78.5t-92.5 44.5q-16 4 -27.5 12t-1.5 27l19 41q4 12 7 14t13 2h328q16 0 32.5 -8t16.5 -47v-756 q0 -39 9 -55.5t20 -26.5q18 -18 46.5 -24.5t52.5 -10.5t36 -14t-2 -35l-13 -29q-8 -16 -24 -17t-37 -1h-311q-16 0 -32.5 4t-16.5 37v113l-78 -60q-63 -49 -142 -84t-147 -35q-39 0 -70.5 16.5t-66.5 45.5q-10 -23 -12.5 -50.5t-2.5 -49.5q0 -16 4.5 -35t8.5 -41l108 -232 q18 -47 5 -69.5t-46 -28.5q-31 -6 -64.5 -12t-62 -8.5t-51 2t-33.5 20.5q-14 23 -21 62.5t-7 89.5v1120q0 33 -6.5 53.5t-20.5 33.5t-38.5 20.5t-59.5 15.5q-16 4 -27.5 12t-1.5 27z" />
<glyph unicode="&#xb6;" horiz-adv-x="1165" d="M27 1024q0 109 25.5 186.5t79.5 126.5t140 73t209 24h606q12 0 23.5 -5.5t3.5 -25.5l-12 -33q-6 -16 -17.5 -19t-21.5 -8q-39 -6 -72 -30.5t-33 -77.5v-1385q0 -59 28 -78.5t104 -33.5q37 -6 22 -35l-16 -37q-10 -14 -35 -12h-279v1685h-108v-1685h-322q-12 0 -23.5 3 t-2.5 26l12 32q6 16 17.5 19.5t21.5 7.5q18 2 39.5 10t40 21.5t30 32t11.5 44.5v725q-127 -2 -216 31t-146.5 92.5t-83 142.5t-25.5 183zM272 1024q0 -184 52.5 -263t173.5 -79v657q-121 0 -173.5 -69.5t-52.5 -245.5z" />
<glyph unicode="&#xb7;" horiz-adv-x="382" d="M39 518q0 33 12 60.5t33.5 48t49.5 33t59 12.5q63 0 108 -46t45 -108q0 -31 -12 -58.5t-32.5 -49t-49.5 -33.5t-59 -12q-31 0 -59 12t-49.5 32.5t-33.5 49t-12 59.5z" />
<glyph unicode="&#xb8;" horiz-adv-x="466" d="M30 -375q7 21 29 27q16 -4 49 -11.5t56 -7.5q41 0 73.5 16.5t32.5 69.5q0 35 -19.5 53.5t-43.5 20.5q-23 4 -43.5 1t-42.5 -7l-15 10l95 223h80l-62 -153q27 6 60 6q31 0 59.5 -8t52 -25.5t37.5 -44t14 -63.5q0 -41 -23.5 -74t-60 -54.5t-84 -32.5t-96.5 -11q-41 0 -80 8 t-61 18q-14 18 -7 39z" />
<glyph unicode="&#xb9;" horiz-adv-x="624" d="M33 1327q-8 20 8 27l387 104v-717q0 -27 9 -41t20 -20q18 -12 44.5 -16.5t49 -6.5t37 -5t8.5 -11l-21 -41q-6 -12 -19 -14t-30 -2h-444q-10 0 -24.5 1t-6.5 19l15 41q4 6 19 9t33.5 5.5t36 4.5t25.5 8q12 10 27.5 25.5t15.5 43.5v533q0 35 -11 46t-29.5 10t-43 -11 t-51.5 -19l-27 -8q-16 -6 -20 11z" />
<glyph unicode="&#xba;" horiz-adv-x="813" d="M39 1122q0 66 26.5 127.5t75.5 107.5t121 73.5t162 27.5q84 0 149.5 -27.5t109.5 -71.5t67.5 -99.5t23.5 -112.5q0 -61 -25.5 -121.5t-74.5 -108t-121 -76t-166 -28.5q-84 0 -149.5 27.5t-109.5 72.5t-66.5 99.5t-22.5 109.5zM256 1163q0 -139 49.5 -210.5t106.5 -71.5 q45 0 73.5 23.5t45 59t21.5 78.5t5 82q0 123 -42 195t-105 72q-41 0 -70 -21.5t-47.5 -54.5t-27.5 -74t-9 -78z" />
<glyph unicode="&#xbb;" horiz-adv-x="884" d="M51 825q0 10 4 19.5t21 9.5q16 0 38.5 -21.5t43.5 -44.5l325 -301l-333 -311q-14 -14 -36 -34.5t-38 -20.5q-12 0 -15.5 8t-3.5 18q0 16 27 63.5t61.5 103t68.5 104.5t50 69q-14 18 -48 67.5t-69.5 105t-63.5 102.5t-32 63zM434 825q0 10 4 19.5t21 9.5q16 0 38.5 -21.5 t43.5 -44.5l325 -301l-334 -311q-14 -14 -35.5 -34.5t-37.5 -20.5q-12 0 -15.5 8t-3.5 18q0 16 27 63.5t61.5 103t68.5 104.5t50 69q-14 18 -48 67.5t-69.5 105t-63.5 102.5t-32 63z" />
<glyph unicode="&#xbc;" horiz-adv-x="1841" d="M39 1327q-8 20 8 27l387 104v-717q0 -27 9.5 -41t19.5 -20q18 -12 45 -16.5t49.5 -6.5t36.5 -5t8 -11l-20 -41q-6 -12 -19.5 -14t-30.5 -2h-444q-10 0 -24.5 1t-6.5 19l15 41q4 6 19 9t33.5 5.5t36 4.5t25.5 8q12 10 27.5 25.5t15.5 43.5v533q0 35 -11 46t-29.5 10 t-43 -11t-51.5 -19l-26 -8q-16 -6 -21 11zM408 0l856 1434h153l-854 -1434h-155zM1018 311q111 147 220.5 281.5t215.5 267.5h182v-500h123q33 0 21 -26l-45 -84h-99v-92q0 -27 9.5 -41.5t19.5 -20.5q18 -12 45 -16t49.5 -6t36.5 -5t8 -12l-20 -41q-6 -12 -19.5 -14 t-29.5 -2h-445q-10 0 -24.5 1t-5.5 19l14 41q4 6 19.5 9.5t34 5.5t35.5 4t26 8q12 10 27.5 25.5t15.5 44.5v92h-334q-18 0 -30.5 1t-16.5 9zM1169 360h263v330q-84 -88 -148.5 -173t-114.5 -157z" />
<glyph unicode="&#xbd;" horiz-adv-x="1865" d="M39 1327q-8 20 8 27l387 104v-717q0 -27 9.5 -41t19.5 -20q18 -12 45 -16.5t49.5 -6.5t36.5 -5t8 -11l-20 -41q-6 -12 -19.5 -14t-30.5 -2h-444q-10 0 -24.5 1t-6.5 19l15 41q4 6 19 9t33.5 5.5t36 4.5t25.5 8q12 10 27.5 25.5t15.5 43.5v533q0 35 -11 46t-29.5 10 t-43 -11t-51.5 -19l-26 -8q-16 -6 -21 11zM406 0l856 1434h153l-854 -1434h-155zM1122 0v104q47 45 106.5 86t112.5 95q29 27 68 66.5t75 85.5t61.5 95.5t25.5 96.5q0 37 -13.5 63.5t-32 42t-40 22.5t-39.5 7q-68 0 -105.5 -32t-54.5 -60l-37 -60q-6 -12 -16 -8l-39 17 q-8 8 -8 16v117q0 16 17.5 29.5t41.5 29.5q29 23 93.5 42t131.5 19q59 0 117 -13t103 -38.5t72.5 -66.5t27.5 -97q0 -59 -33 -115.5t-79 -105.5t-93 -87t-76 -58l-209 -156v-4h314q35 0 61.5 23.5t47 51.5t35 49.5t24.5 16.5l41 -20q4 -2 7 -8t1 -13l-80 -202 q-6 -20 -23.5 -25.5t-46.5 -5.5h-559z" />
<glyph unicode="&#xbe;" horiz-adv-x="1855" d="M32 737q1 4 11 15l39 32q18 14 29 2l71 -81q23 -25 52.5 -45.5t76.5 -20.5q78 0 131.5 45t53.5 127q0 63 -32 99t-77 55.5t-92 24.5t-80 7v70q47 4 90 18.5t76 38t52.5 57t19.5 79.5q0 39 -12.5 62.5t-31 36.5t-39 17t-34.5 4q-39 0 -68.5 -13t-49 -32.5t-32 -39 t-18.5 -31.5l-18 -37q-6 -14 -19 -6l-31 14q-8 4 -8 14v107q0 10 12.5 19t34.5 26q35 23 93.5 40t154.5 17q41 0 91 -9t95 -31.5t75 -60.5t30 -93q0 -37 -20.5 -72t-54.5 -62.5t-76 -48t-85 -28.5v-4q121 -4 200 -65.5t79 -156.5q0 -59 -29.5 -106t-82 -81t-126 -52.5 t-159.5 -18.5q-96 0 -160 18.5t-84 33.5l-47 104q-2 8 -1 12zM453 0l856 1434h153l-854 -1434h-155zM1032 311q111 147 220.5 281.5t215.5 267.5h183v-500h123q33 0 20 -26l-45 -84h-98v-92q0 -27 9 -41.5t19 -20.5q18 -12 45 -16t49.5 -6t37 -5t8.5 -12l-21 -41 q-6 -12 -19.5 -14t-29.5 -2h-444q-10 0 -24.5 1t-6.5 19l14 41q4 6 19.5 9.5t34 5.5t36 4t25.5 8q12 10 27.5 25.5t15.5 44.5v92h-334q-18 0 -30.5 1t-16.5 9zM1184 360h262v330q-84 -88 -148.5 -173t-113.5 -157z" />
<glyph unicode="&#xbf;" horiz-adv-x="839" d="M20 -131q0 63 24 118.5t60.5 103.5t80.5 90t85 81q39 39 65.5 75t42 72.5t23 78.5t9.5 92h147q4 -53 1 -97.5t-17.5 -89.5t-40 -97t-68.5 -122q-59 -106 -86 -184t-27 -154q0 -43 11.5 -84t30 -72.5t45 -52t57.5 -20.5q47 0 84 27.5t59 50.5l82 82q14 10 26.5 8t24.5 -11 l47 -30q25 -14 15 -39l-70 -125q-16 -10 -48 -19.5t-72 -16.5t-86 -11t-89 -4q-86 0 -161.5 23.5t-132 68.5t-89.5 109.5t-33 148.5zM328 895q0 33 12 60.5t33.5 48t49 33t58.5 12.5q63 0 108.5 -46.5t45.5 -107.5q0 -31 -12.5 -58.5t-33 -49t-49 -34t-59.5 -12.5 t-58.5 12.5t-49 33t-33.5 49t-12 59.5z" />
<glyph unicode="&#xc0;" horiz-adv-x="1548" d="M26 12q-3 8 3 27l10 29q4 12 17.5 18t35.5 12q33 8 53.5 15.5t35 22t26.5 37t29 60.5l352 906q14 37 13 62.5t-9 44t-20.5 29.5t-20.5 19q-18 16 -42 24.5t-44.5 14.5t-29.5 15.5t1 27.5l10 33q6 16 19.5 20.5t30.5 4.5h354q23 0 35 -18.5t16 -41.5q53 -154 110.5 -307.5 t116 -298.5t114.5 -280.5t106 -254.5q14 -37 25 -59t26.5 -34.5t39 -20.5t62.5 -19q35 -10 27 -34l-21 -46q-8 -14 -20 -17t-31 -3h-481q-16 0 -26.5 6t-2.5 27l19 41q6 14 26.5 22t39 20.5t27.5 35t-5 69.5l-80 207h-514l-92 -233q-14 -41 2 -60.5t40.5 -31t44 -19.5 t9.5 -27l-12 -22q-4 -8 -11.5 -21.5t-29.5 -13.5h-318q-14 0 -28.5 -1t-24.5 2t-13 11zM446 1841q0 43 26 67.5t60 24.5q41 0 80 -28.5t74 -59.5l234 -223q8 -61 -70 -61l-279 157q-45 25 -85 54.5t-40 68.5zM502 551h426l-211 555z" />
<glyph unicode="&#xc1;" horiz-adv-x="1548" d="M17 12q-3 8 3 27l11 29q4 12 17 18t36 12q33 8 53.5 15.5t34.5 22t26.5 37t28.5 60.5l353 906q14 37 13 62.5t-9.5 44t-20.5 29.5t-20 19q-18 16 -42 24.5t-44.5 14.5t-29.5 15.5t1 27.5l10 33q6 16 19.5 20.5t29.5 4.5h355q23 0 35 -18.5t16 -41.5q53 -154 110.5 -307.5 t116 -298.5t114.5 -280.5t105 -254.5q14 -37 25.5 -59t27 -34.5t39 -20.5t62.5 -19q35 -10 27 -34l-21 -46q-8 -14 -20.5 -17t-30.5 -3h-481q-16 0 -26.5 6t-2.5 27l18 41q6 14 27 22t39 20.5t27.5 35t-5.5 69.5l-79 207h-514l-93 -233q-14 -41 2.5 -60.5t41 -31t44 -19.5 t9.5 -27l-13 -22q-4 -8 -11 -21.5t-30 -13.5h-317q-14 0 -28.5 -1t-25 2t-13.5 11zM494 551h426l-211 555zM592 1630l227 213q35 33 72 61.5t80 28.5q29 0 55.5 -25.5t26.5 -60.5q0 -41 -38 -70.5t-83 -58.5l-287 -162q-63 8 -53 74z" />
<glyph unicode="&#xc2;" d="M26 12q-3 8 3 27l10 29q4 12 17.5 18t35.5 12q33 8 53.5 15.5t35 22t26.5 37t29 60.5l352 906q14 37 13 62.5t-9 44t-20.5 29.5t-20.5 19q-18 16 -42 24.5t-44.5 14.5t-29.5 15.5t1 27.5l10 33q6 16 19.5 20.5t30.5 4.5h354q23 0 35 -18.5t16 -41.5q53 -154 110.5 -307.5 t116 -298.5t114.5 -280.5t106 -254.5q14 -37 25 -59t26.5 -34.5t39 -20.5t62.5 -19q35 -10 27 -34l-21 -46q-8 -14 -20 -17t-31 -3h-481q-16 0 -26.5 6t-2.5 27l19 41q6 14 26.5 22t39 20.5t27.5 35t-5 69.5l-80 207h-514l-92 -233q-14 -41 2 -60.5t40.5 -31t44 -19.5 t9.5 -27l-12 -22q-4 -8 -11.5 -21.5t-29.5 -13.5h-318q-14 0 -28.5 -1t-24.5 2t-13 11zM391 1569l271 313h147l270 -313q-4 -23 -33.5 -25t-52.5 8l-258 193l-258 -193q-23 -10 -52.5 -8t-33.5 25zM502 551h426l-211 555z" />
<glyph unicode="&#xc3;" horiz-adv-x="1552" d="M23.5 12q-3.5 8 3.5 27l10 29q4 12 17.5 18t35.5 12q33 8 53.5 15.5t35 22t26.5 37t28 60.5l353 906q14 37 13 62.5t-9 44t-20.5 29.5t-20.5 19q-18 16 -42 24.5t-44.5 14.5t-29.5 15.5t1 27.5l10 33q6 16 19.5 20.5t30.5 4.5h354q23 0 35 -18.5t16 -41.5 q53 -154 110.5 -307.5t116 -298.5t114.5 -280.5t106 -254.5q14 -37 25 -59t26.5 -34.5t39 -20.5t62.5 -19q35 -10 27 -34l-21 -46q-8 -14 -20 -17t-31 -3h-481q-16 0 -26.5 6t-2.5 27l19 41q6 14 26.5 22t39 20.5t27.5 35t-5 69.5l-80 207h-514l-92 -233q-14 -41 2 -60.5 t40.5 -31t44 -19.5t9.5 -27l-12 -22q-4 -8 -11.5 -21.5t-29.5 -13.5h-318q-14 0 -28.5 -1t-24.5 2t-13.5 11zM360 1571q8 39 28 77t49.5 66.5t70.5 47t90 18.5q47 0 83 -16.5t71 -34.5q37 -20 71.5 -40t87.5 -20q59 0 99.5 36t44.5 69q14 16 40.5 12t30.5 -25 q-2 -37 -21.5 -75.5t-51 -71.5t-74.5 -53.5t-92 -20.5q-72 0 -111 17.5t-69 37.5q-31 20 -64 37t-86 17q-25 0 -46.5 -9.5t-38.5 -22.5t-28.5 -29.5t-13.5 -28.5q-6 -6 -17.5 -9.5t-22.5 -2.5t-20.5 7.5t-9.5 16.5zM500 551h426l-211 555z" />
<glyph unicode="&#xc4;" horiz-adv-x="1550" d="M23.5 12q-3.5 8 3.5 27l10 29q4 12 17.5 18t35.5 12q33 8 53.5 15.5t35 22t26.5 37t28 60.5l353 906q14 37 13 62.5t-9 44t-20.5 29.5t-20.5 19q-18 16 -42 24.5t-44.5 14.5t-29.5 15.5t1 27.5l10 33q6 16 19.5 20.5t30.5 4.5h354q23 0 35 -18.5t16 -41.5 q53 -154 110.5 -307.5t116 -298.5t114.5 -280.5t106 -254.5q14 -37 25 -59t26.5 -34.5t39 -20.5t62.5 -19q35 -10 27 -34l-21 -46q-8 -14 -20 -17t-31 -3h-481q-16 0 -26.5 6t-2.5 27l19 41q6 14 26.5 22t39 20.5t27.5 35t-5 69.5l-80 207h-514l-92 -233q-14 -41 2 -60.5 t40.5 -31t44 -19.5t9.5 -27l-12 -22q-4 -8 -11.5 -21.5t-29.5 -13.5h-318q-14 0 -28.5 -1t-24.5 2t-13.5 11zM393 1657q0 43 35 79t80 36q47 0 82 -34t35 -81t-35 -82t-82 -35t-81 35t-34 82zM500 551h426l-211 555zM840 1657q0 43 34.5 79t79.5 36q47 0 82 -34t35 -81 t-35 -82t-82 -35t-80.5 35t-33.5 82z" />
<glyph unicode="&#xc5;" horiz-adv-x="1552" d="M23.5 12q-3.5 8 3.5 27l10 29q4 12 17.5 18t35.5 12q33 8 53.5 15.5t35 22t26.5 37t28 60.5l353 906q14 37 13 62.5t-9 44t-20.5 29.5t-20.5 19q-18 16 -42 24.5t-44.5 14.5t-29.5 15.5t1 27.5l10 33q6 16 19.5 20.5t30.5 4.5h354q23 0 35 -18.5t16 -41.5 q53 -154 110.5 -307.5t116 -298.5t114.5 -280.5t106 -254.5q14 -37 25 -59t26.5 -34.5t39 -20.5t62.5 -19q35 -10 27 -34l-21 -46q-8 -14 -20 -17t-31 -3h-481q-16 0 -26.5 6t-2.5 27l19 41q6 14 26.5 22t39 20.5t27.5 35t-5 69.5l-80 207h-514l-92 -233q-14 -41 2 -60.5 t40.5 -31t44 -19.5t9.5 -27l-12 -22q-4 -8 -11.5 -21.5t-29.5 -13.5h-318q-14 0 -28.5 -1t-24.5 2t-13.5 11zM500 551h426l-211 555zM539 1722q0 41 16 78t45 65.5t67 45t78 16.5q41 0 78 -16.5t64.5 -44t44 -65.5t16.5 -79t-16.5 -77.5t-44 -64.5t-64.5 -44t-80 -16 q-41 0 -77.5 16t-65.5 44t-45 64.5t-16 77.5zM633 1722q0 -43 33.5 -75.5t76.5 -32.5t77 32.5t34 75.5t-33 77t-78 34t-77.5 -32t-32.5 -79z" />
<glyph unicode="&#xc6;" horiz-adv-x="1980" d="M28.5 6q-10.5 6 0.5 29l10 24q4 12 17.5 17.5t35.5 11.5q66 14 99.5 48t58.5 75l528 954q23 43 40.5 80t0.5 53q-18 14 -39.5 21.5t-39 13.5t-24.5 14.5t3 26.5l10 29q12 31 41 31h1010q29 0 46 -14.5t13 -37.5v-163q0 -8 -10 -19l-37 -31q-12 -10 -25.5 11.5t-35 50.5 t-54 54.5t-84.5 25.5h-301v-475h473q20 0 28.5 -8.5t-1.5 -22.5l-37 -64q-10 -16 -25.5 -22t-39.5 -6h-398v-398q0 -115 33 -153.5t117 -38.5h168q76 0 121 26.5t72.5 58.5t41 56.5t23.5 22.5l51 -17q12 -4 12 -18v-201q0 -25 -26.5 -38t-67.5 -13h-915q-6 -2 -16.5 4 t-0.5 23l19 36q6 10 19 15.5t27.5 15.5t26 33t11.5 68v233h-469l-146 -252q-14 -37 2.5 -54.5t41 -27.5t44 -18t8.5 -25l-12 -20q-4 -8 -11 -19.5t-30 -11.5h-362q-35 0 -45.5 6zM602 551h406v743h-4z" />
<glyph unicode="&#xc7;" horiz-adv-x="1347" d="M27 729q0 150 59 283t163.5 232t247 156.5t308.5 57.5q92 0 170 -14t139.5 -33.5t104.5 -41t67 -36.5q12 -6 14.5 -15t2.5 -20v-131q0 -10 -13 -22l-55 -39q-12 -8 -33.5 24.5t-68 75.5t-125 81t-201.5 38q-117 0 -205 -44t-147.5 -121t-89 -183.5t-29.5 -231.5 q0 -154 42 -272.5t112.5 -199t165 -122.5t198.5 -42t212 30.5t194 110.5q12 10 24 11t22.5 -4t13.5 -14.5t-3 -21.5l-64 -137q-10 -16 -17 -29.5t-24 -23.5q-37 -23 -147.5 -39.5t-251.5 -16.5q-31 0 -59.5 2.5t-57.5 6.5l-47 -117q27 6 60 6q31 0 59.5 -8t52 -25.5 t37.5 -44t14 -63.5q0 -41 -23.5 -74t-60 -54.5t-84 -32.5t-96.5 -11q-41 0 -80 8t-61 18q-14 18 -7 39t29 27q16 -4 49 -11.5t56 -7.5q41 0 73.5 16.5t32.5 69.5q0 35 -19 53.5t-44 20.5q-23 4 -43.5 1t-42.5 -7l-14 10l84 199q-135 27 -245 91.5t-187.5 158.5t-119.5 217 t-42 266z" />
<glyph unicode="&#xc8;" horiz-adv-x="1150" d="M33 1370l16 39q6 14 15.5 19.5t19.5 5.5h893q29 0 46 -14.5t13 -37.5v-163q0 -8 -10 -19l-37 -31q-12 -10 -25.5 11.5t-35 50.5t-54 54.5t-83.5 25.5h-302v-475h474q20 0 28 -8.5t-2 -22.5l-37 -64q-10 -16 -25.5 -22t-39.5 -6h-398v-398q0 -115 33 -153.5t117 -38.5h168 q76 0 121 26.5t72.5 58.5t41 56.5t23.5 22.5l51 -17q12 -4 12 -18v-201q0 -25 -26.5 -38t-67.5 -13h-633q-59 0 -97 2t-61.5 15.5t-32.5 42t-9 81.5v1057q0 66 -32 95.5t-97 39.5q-23 6 -35 13.5t-4 23.5zM303 1841q0 43 25.5 67.5t60.5 24.5q41 0 80 -28.5t74 -59.5 l233 -223q8 -61 -69 -61l-279 157q-45 25 -85 54.5t-40 68.5z" />
<glyph unicode="&#xc9;" horiz-adv-x="1153" d="M27 1370l16 39q6 14 15.5 19.5t19.5 5.5h893q29 0 46 -14.5t13 -37.5v-163q0 -8 -10 -19l-37 -31q-12 -10 -25.5 11.5t-35 50.5t-54 54.5t-84.5 25.5h-301v-475h473q20 0 28.5 -8.5t-1.5 -22.5l-37 -64q-10 -16 -25.5 -22t-39.5 -6h-398v-398q0 -115 33 -153.5t117 -38.5 h168q76 0 121 26.5t72.5 58.5t41 56.5t23.5 22.5l51 -17q12 -4 12 -18v-201q0 -25 -26.5 -38t-67.5 -13h-633q-59 0 -97 2t-61.5 15.5t-32.5 42t-9 81.5v1057q0 66 -32 95.5t-97 39.5q-23 6 -35.5 13.5t-3.5 23.5zM442 1630l228 213q35 33 71.5 61.5t79.5 28.5 q29 0 55.5 -25.5t26.5 -60.5q0 -41 -38 -70.5t-83 -58.5l-286 -162q-63 8 -54 74z" />
<glyph unicode="&#xca;" horiz-adv-x="1159" d="M33 1370l16 39q6 14 15.5 19.5t19.5 5.5h893q29 0 46 -14.5t13 -37.5v-163q0 -8 -10 -19l-37 -31q-12 -10 -25.5 11.5t-35 50.5t-54 54.5t-83.5 25.5h-302v-475h474q20 0 28 -8.5t-2 -22.5l-37 -64q-10 -16 -25.5 -22t-39.5 -6h-398v-398q0 -115 33 -153.5t117 -38.5h168 q76 0 121 26.5t72.5 58.5t41 56.5t23.5 22.5l51 -17q12 -4 12 -18v-201q0 -25 -26.5 -38t-67.5 -13h-633q-59 0 -97 2t-61.5 15.5t-32.5 42t-9 81.5v1057q0 66 -32 95.5t-97 39.5q-23 6 -35 13.5t-4 23.5zM240 1569l270 313h147l271 -313q-4 -23 -34 -25t-52 8l-258 193 l-258 -193q-23 -10 -52.5 -8t-33.5 25z" />
<glyph unicode="&#xcb;" horiz-adv-x="1161" d="M35 1370l16 39q6 14 15.5 19.5t19.5 5.5h893q29 0 46 -14.5t13 -37.5v-163q0 -8 -10 -19l-37 -31q-12 -10 -25.5 11.5t-35 50.5t-54 54.5t-83.5 25.5h-301v-475h473q20 0 28 -8.5t-2 -22.5l-37 -64q-10 -16 -25.5 -22t-39.5 -6h-397v-398q0 -115 32.5 -153.5t116.5 -38.5 h168q76 0 121 26.5t72.5 58.5t41 56.5t23.5 22.5l51 -17q12 -4 12 -18v-201q0 -25 -26.5 -38t-67.5 -13h-633q-59 0 -97 2t-61.5 15.5t-32.5 42t-9 81.5v1057q0 66 -32 95.5t-97 39.5q-23 6 -35 13.5t-4 23.5zM246 1657q0 43 34.5 79t79.5 36q47 0 82 -34t35 -81t-34.5 -82 t-82.5 -35q-47 0 -80.5 35t-33.5 82zM692 1657q0 43 35 79t80 36q47 0 82 -34t35 -81t-35 -82t-82 -35t-81 35t-34 82z" />
<glyph unicode="&#xcc;" horiz-adv-x="661" d="M37 35l12 35q6 16 17.5 20t21.5 8q39 8 72 35t33 86v995q0 66 -28 87.5t-104 37.5q-20 4 -24 14.5t2 22.5l16 41q10 16 35 17h520q12 0 23.5 -6.5t3.5 -28.5l-12 -35q-6 -16 -17.5 -20.5t-21.5 -8.5q-39 -8 -72 -34.5t-33 -86.5v-995q0 -66 28 -87t103 -38 q20 -4 24.5 -14t-1.5 -23l-17 -41q-10 -16 -34 -16h-521q-12 0 -23 6t-3 29zM55 1841q0 43 25.5 67.5t60.5 24.5q41 0 80 -28.5t74 -59.5l233 -223q8 -61 -69 -61l-279 157q-45 25 -85 54.5t-40 68.5z" />
<glyph unicode="&#xcd;" horiz-adv-x="677" d="M22.5 1353.5q-4.5 10.5 2.5 22.5l16 41q10 16 35 17h520q12 0 23.5 -6.5t3.5 -28.5l-13 -35q-6 -16 -17 -20.5t-22 -8.5q-39 -8 -71.5 -34.5t-32.5 -86.5v-995q0 -66 27.5 -87t103.5 -38q20 -4 24.5 -14t-1.5 -23l-17 -41q-10 -16 -35 -16h-520q-12 0 -23.5 6t-2.5 29 l12 35q6 16 17 20l22 8q39 8 71.5 35t32.5 86v995q0 66 -27.5 87.5t-103.5 37.5q-20 4 -24.5 14.5zM186 1630l228 213q35 33 71.5 61.5t79.5 28.5q29 0 55.5 -25.5t26.5 -60.5q0 -41 -38 -70.5t-83 -58.5l-286 -162q-63 8 -54 74z" />
<glyph unicode="&#xce;" horiz-adv-x="737" d="M25 1569l270 313h147l271 -313q-4 -23 -34 -25t-52 8l-258 193l-258 -193q-23 -10 -52.5 -8t-33.5 25zM70 35l12 35q6 16 17.5 20t21.5 8q39 8 71.5 35t32.5 86v995q0 66 -27.5 87.5t-103.5 37.5q-20 4 -24 14.5t2 22.5l16 41q10 16 35 17h520q12 0 23.5 -6.5t3.5 -28.5 l-13 -35q-6 -16 -17 -20.5t-22 -8.5q-39 -8 -71.5 -34.5t-32.5 -86.5v-995q0 -66 27.5 -87t103.5 -38q20 -4 24.5 -14t-1.5 -23l-17 -41q-10 -16 -35 -16h-520q-12 0 -23.5 6t-2.5 29z" />
<glyph unicode="&#xcf;" horiz-adv-x="729" d="M25 1657q0 43 34.5 79t79.5 36q47 0 82 -34t35 -81t-35 -82t-82 -35t-80.5 35t-33.5 82zM65.5 1353.5q-4.5 10.5 2.5 22.5l16 41q10 16 35 17h520q12 0 23.5 -6.5t3.5 -28.5l-13 -35q-6 -16 -17 -20.5t-22 -8.5q-39 -8 -71.5 -34.5t-32.5 -86.5v-995q0 -66 27.5 -87 t103.5 -38q20 -4 24.5 -14t-1.5 -23l-17 -41q-10 -16 -35 -16h-520q-12 0 -23.5 6t-2.5 29l12 35q6 16 17 20l22 8q39 8 71.5 35t32.5 86v995q0 66 -27.5 87.5t-103.5 37.5q-20 4 -24.5 14.5zM471 1657q0 43 35 79t80 36q47 0 81.5 -34t34.5 -81t-34.5 -82t-81.5 -35t-81 35 t-34 82z" />
<glyph unicode="&#xd0;" horiz-adv-x="1642" d="M33 709v122h241v367q0 66 -31.5 95.5t-97.5 39.5q-23 6 -35 13.5t-4 23.5l17 39q6 14 15 19.5t20 5.5h673q219 0 367 -49.5t238 -138.5t128 -215t38 -281q0 -160 -58.5 -301.5t-161 -246t-246 -166t-311.5 -61.5q-98 0 -171.5 2.5t-132 8.5t-104.5 15t-87 24 q-55 20 -56 108v576h-241zM563 291q0 -59 18.5 -96t53.5 -58.5t82 -30t106 -8.5q119 0 208 50.5t146.5 137.5t86 204.5t28.5 254.5q0 152 -31.5 259.5t-95 175t-155.5 99.5t-213 32h-234v-480h367v-122h-367v-418z" />
<glyph unicode="&#xd1;" horiz-adv-x="1650" d="M33 1351.5q-6 10.5 0 24.5l16 41q12 16 35 17h352q39 -4 62.5 -28t52.5 -56l760 -957h4v821q0 66 -27.5 87.5t-103.5 37.5q-20 4 -24.5 14.5t1.5 22.5l17 41q10 16 34 17h373q12 0 23.5 -6.5t3.5 -28.5l-13 -35q-6 -16 -17 -20.5t-21 -8.5q-39 -8 -72 -34.5t-33 -86.5 v-1146q0 -31 -8 -49.5t-37 -18.5h-141q-8 0 -23.5 16.5t-62.5 75.5l-778 991h-5v-864q0 -66 28 -87t103 -38q20 -4 24.5 -14t-1.5 -23l-16 -41q-10 -16 -35 -16h-373q-12 0 -23.5 6t-3.5 29l13 35q6 16 17 20l22 8q39 8 71.5 35t32.5 86v993q-45 47 -97 77t-93 42 q-31 10 -37 20.5zM442 1571q8 39 27.5 77t49.5 66.5t71 47t90 18.5q47 0 83 -16.5t71 -34.5q37 -20 71.5 -40t87.5 -20q59 0 99.5 36t44.5 69q14 16 40.5 12t30.5 -25q-2 -37 -21.5 -75.5t-51 -71.5t-74.5 -53.5t-92 -20.5q-72 0 -111 17.5t-70 37.5t-63.5 37t-85.5 17 q-25 0 -46.5 -9.5t-38.5 -22.5t-28.5 -29.5t-13.5 -28.5q-6 -6 -17.5 -9.5t-22.5 -2.5t-20.5 7.5t-9.5 16.5z" />
<glyph unicode="&#xd2;" horiz-adv-x="1548" d="M31 696q0 172 63.5 312.5t172 241t250.5 154.5t302 54q154 0 284 -57.5t223 -154.5t145.5 -227t52.5 -274q0 -152 -54.5 -290t-155 -245.5t-244.5 -171t-325 -63.5q-135 0 -264 49.5t-229 142.5t-160.5 226t-60.5 303zM340 768q0 -170 35 -295t94 -206t141 -119.5 t174 -38.5q115 0 197 58t134 147t75.5 196.5t23.5 208.5q0 160 -36.5 274.5t-98 188t-140.5 108.5t-163 35q-127 0 -211 -58.5t-134 -143.5t-70.5 -182t-20.5 -173zM446 1841q0 43 26 67.5t60 24.5q41 0 80 -28.5t74 -59.5l234 -223q8 -61 -70 -61l-279 157q-45 25 -85 54.5 t-40 68.5z" />
<glyph unicode="&#xd3;" horiz-adv-x="1546" d="M25 696q0 172 63.5 312.5t172 241t250.5 154.5t302 54q154 0 284 -57.5t223 -154.5t145.5 -227t52.5 -274q0 -152 -54.5 -290t-155 -245.5t-244.5 -171t-325 -63.5q-135 0 -264 49.5t-229.5 142.5t-160.5 226t-60 303zM334 768q0 -170 34.5 -295t94 -206t141.5 -119.5 t174 -38.5q115 0 197 58t134 147t75.5 196.5t23.5 208.5q0 160 -36.5 274.5t-98 188t-140.5 108.5t-163 35q-127 0 -211 -58.5t-134 -143.5t-70.5 -182t-20.5 -173zM635 1630l227 213q35 33 72 61.5t80 28.5q29 0 55.5 -25.5t26.5 -60.5q0 -41 -38 -70.5t-83 -58.5 l-287 -162q-63 8 -53 74z" />
<glyph unicode="&#xd4;" d="M31 696q0 172 63.5 312.5t172 241t250.5 154.5t302 54q154 0 284 -57.5t223 -154.5t145.5 -227t52.5 -274q0 -152 -54.5 -290t-155 -245.5t-244.5 -171t-325 -63.5q-135 0 -264 49.5t-229 142.5t-160.5 226t-60.5 303zM340 768q0 -170 35 -295t94 -206t141 -119.5 t174 -38.5q115 0 197 58t134 147t75.5 196.5t23.5 208.5q0 160 -36.5 274.5t-98 188t-140.5 108.5t-163 35q-127 0 -211 -58.5t-134 -143.5t-70.5 -182t-20.5 -173zM432 1569l270 313h148l270 -313q-4 -23 -33.5 -25t-52.5 8l-258 193l-258 -193q-23 -10 -52.5 -8t-33.5 25z " />
<glyph unicode="&#xd5;" d="M31 696q0 172 63.5 312.5t172 241t250.5 154.5t302 54q154 0 284 -57.5t223 -154.5t145.5 -227t52.5 -274q0 -152 -54.5 -290t-155 -245.5t-244.5 -171t-325 -63.5q-135 0 -264 49.5t-229 142.5t-160.5 226t-60.5 303zM340 768q0 -170 35 -295t94 -206t141 -119.5 t174 -38.5q115 0 197 58t134 147t75.5 196.5t23.5 208.5q0 160 -36.5 274.5t-98 188t-140.5 108.5t-163 35q-127 0 -211 -58.5t-134 -143.5t-70.5 -182t-20.5 -173zM393 1571q8 39 27.5 77t49.5 66.5t71 47t90 18.5q47 0 83 -16.5t70 -34.5q37 -20 72 -40t88 -20q59 0 99 36 t44 69q14 16 41 12t31 -25q-2 -37 -21.5 -75.5t-51 -71.5t-74.5 -53.5t-92 -20.5q-72 0 -111 17.5t-70 37.5t-63.5 37t-85.5 17q-25 0 -46.5 -9.5t-39 -22.5t-28.5 -29.5t-13 -28.5q-6 -6 -17.5 -9.5t-22.5 -2.5t-20.5 7.5t-9.5 16.5z" />
<glyph unicode="&#xd6;" d="M31 696q0 172 63.5 312.5t172 241t250.5 154.5t302 54q154 0 284 -57.5t223 -154.5t145.5 -227t52.5 -274q0 -152 -54.5 -290t-155 -245.5t-244.5 -171t-325 -63.5q-135 0 -264 49.5t-229 142.5t-160.5 226t-60.5 303zM340 768q0 -170 35 -295t94 -206t141 -119.5 t174 -38.5q115 0 197 58t134 147t75.5 196.5t23.5 208.5q0 160 -36.5 274.5t-98 188t-140.5 108.5t-163 35q-127 0 -211 -58.5t-134 -143.5t-70.5 -182t-20.5 -173zM436 1657q0 43 35 79t80 36q47 0 82 -34t35 -81t-35 -82t-82 -35t-81 35t-34 82zM883 1657q0 43 34.5 79 t79.5 36q47 0 82 -34t35 -81t-35 -82t-82 -35t-80.5 35t-33.5 82z" />
<glyph unicode="&#xd7;" horiz-adv-x="964" d="M45 195l322 323l-322 324l113 112l321 -323l326 323l113 -112l-326 -324l326 -323l-113 -113l-326 324l-321 -324z" />
<glyph unicode="&#xd8;" horiz-adv-x="1574" d="M41 696q0 172 63.5 312.5t172 241t251 154.5t301.5 54q123 0 229.5 -37t194.5 -102l154 164l102 -74l-163 -174q90 -96 139 -222t49 -268q0 -152 -54.5 -290t-154.5 -245.5t-244.5 -171t-324.5 -63.5q-121 0 -235.5 39t-211.5 113l-172 -184l-94 82l176 188 q-84 90 -131 211t-47 272zM350 768q0 -106 12.5 -196.5t40.5 -161.5l707 753q-61 96 -146 129t-178 33q-127 0 -210.5 -58.5t-134 -143.5t-71 -182t-20.5 -173zM461 285q61 -94 146 -135t188 -41q115 0 196.5 57t134 146t76 196.5t23.5 208.5q0 98 -14.5 179t-41.5 146z" />
<glyph unicode="&#xd9;" horiz-adv-x="1468" d="M31 1353.5q-4 10.5 2 22.5l16 41q10 16 35 17h520q12 0 23.5 -6.5t3.5 -28.5l-13 -35q-6 -16 -17 -20.5t-21 -8.5q-39 -8 -72 -34.5t-33 -86.5v-661q0 -76 13.5 -151.5t49 -137t98 -99.5t161.5 -38q160 0 248 103.5t88 324.5v659q0 66 -28 87.5t-104 37.5q-20 4 -24 14.5 t2 22.5l16 41q10 16 35 17h381q12 0 23.5 -6.5t3.5 -28.5l-13 -35q-6 -16 -17 -20.5t-22 -8.5q-39 -8 -71.5 -34.5t-32.5 -86.5v-661q0 -176 -49 -287.5t-126 -176t-168 -89.5t-173 -25q-172 0 -283.5 46.5t-177 124t-92.5 181t-27 220.5v667q0 66 -27.5 87.5t-103.5 37.5 q-20 4 -24 14.5zM451 1841q0 43 25.5 67.5t60.5 24.5q41 0 79.5 -28.5t73.5 -59.5l234 -223q8 -61 -70 -61l-279 157q-45 25 -84.5 54.5t-39.5 68.5z" />
<glyph unicode="&#xda;" horiz-adv-x="1466" d="M24.5 1353.5q-4.5 10.5 2.5 22.5l16 41q10 16 35 17h520q12 0 23.5 -6.5t3.5 -28.5l-13 -35q-6 -16 -17 -20.5t-22 -8.5q-39 -8 -71.5 -34.5t-32.5 -86.5v-661q0 -76 13.5 -151.5t49 -137t98 -99.5t161.5 -38q160 0 247.5 103.5t87.5 324.5v659q0 66 -27.5 87.5 t-103.5 37.5q-20 4 -24 14.5t2 22.5l16 41q10 16 35 17h381q12 0 23.5 -6.5t3.5 -28.5l-13 -35q-6 -16 -17 -20.5t-22 -8.5q-39 -8 -71.5 -34.5t-32.5 -86.5v-661q0 -176 -49 -287.5t-126 -176t-168 -89.5t-173 -25q-172 0 -283.5 46.5t-177.5 124t-92.5 181t-26.5 220.5 v667q0 66 -27.5 87.5t-103.5 37.5q-20 4 -24.5 14.5zM590 1630l227 213q35 33 72 61.5t80 28.5q29 0 55.5 -25.5t26.5 -60.5q0 -41 -38 -70.5t-83 -58.5l-287 -162q-63 8 -53 74z" />
<glyph unicode="&#xdb;" horiz-adv-x="1472" d="M31 1353.5q-4 10.5 2 22.5l16 41q10 16 35 17h520q12 0 23.5 -6.5t3.5 -28.5l-13 -35q-6 -16 -17 -20.5t-21 -8.5q-39 -8 -72 -34.5t-33 -86.5v-661q0 -76 13.5 -151.5t49 -137t98 -99.5t161.5 -38q160 0 248 103.5t88 324.5v659q0 66 -28 87.5t-104 37.5q-20 4 -24 14.5 t2 22.5l16 41q10 16 35 17h381q12 0 23.5 -6.5t3.5 -28.5l-13 -35q-6 -16 -17 -20.5t-22 -8.5q-39 -8 -71.5 -34.5t-32.5 -86.5v-661q0 -176 -49 -287.5t-126 -176t-168 -89.5t-173 -25q-172 0 -283.5 46.5t-177 124t-92.5 181t-27 220.5v667q0 66 -27.5 87.5t-103.5 37.5 q-20 4 -24 14.5zM387 1569l270 313h148l270 -313q-4 -23 -33.5 -25t-52.5 8l-258 193l-258 -193q-23 -10 -52.5 -8t-33.5 25z" />
<glyph unicode="&#xdc;" horiz-adv-x="1474" d="M33 1353.5q-4 10.5 2 22.5l16 41q10 16 35 17h520q12 0 23.5 -6.5t3.5 -28.5l-12 -35q-6 -16 -17.5 -20.5t-21.5 -8.5q-39 -8 -72 -34.5t-33 -86.5v-661q0 -76 13.5 -151.5t49 -137t98 -99.5t161.5 -38q160 0 248 103.5t88 324.5v659q0 66 -28 87.5t-103 37.5 q-20 4 -24.5 14.5t1.5 22.5l16 41q10 16 35 17h381q12 0 23.5 -6.5t3.5 -28.5l-13 -35q-6 -16 -17 -20.5t-21 -8.5q-39 -8 -72 -34.5t-33 -86.5v-661q0 -176 -49 -287.5t-126 -176t-168 -89.5t-173 -25q-172 0 -283.5 46.5t-177 124t-92.5 181t-27 220.5v667 q0 66 -27.5 87.5t-103.5 37.5q-20 4 -24 14.5zM393 1657q0 43 35 79t80 36q47 0 82 -34t35 -81t-35 -82t-82 -35t-81 35t-34 82zM840 1657q0 43 34.5 79t79.5 36q47 0 82 -34t35 -81t-35 -82t-82 -35t-80.5 35t-33.5 82z" />
<glyph unicode="&#xdd;" horiz-adv-x="1339" d="M18 1372l17 43q4 12 14 15.5t23 3.5h463q10 0 18 -6.5t4 -20.5l-16 -45q-4 -14 -24.5 -21.5t-41.5 -29.5q-14 -12 -22.5 -35t6.5 -68l250 -518l292 531q25 47 10.5 70.5t-40.5 37.5q-29 16 -47.5 25.5t-8.5 27.5l19 35q4 4 8 9.5t14 5.5h340q31 0 23 -29l-10 -37 q-6 -16 -29 -24.5t-35 -14.5q-27 -10 -56.5 -33.5t-64.5 -91.5l-301 -547q-25 -47 -34 -98t-9 -98v-240q0 -66 28 -87t103 -38q20 -4 24.5 -14t-1.5 -23l-16 -41q-10 -16 -35 -16h-521q-12 0 -23 6t-3 29l12 35q6 16 17.5 20t21.5 8q39 8 72 35t33 86v334l-318 647 q-18 37 -32.5 59.5t-29 36t-27.5 20.5t-28 15q-18 8 -32.5 16.5t-6.5 24.5zM530 1630l228 213q35 33 71.5 61.5t79.5 28.5q29 0 55.5 -25.5t26.5 -60.5q0 -41 -38 -70.5t-83 -58.5l-286 -162q-63 8 -54 74z" />
<glyph unicode="&#xde;" horiz-adv-x="1169" d="M49 35l12 35q6 16 17.5 20t21.5 8q39 8 72 35t33 86v995q0 66 -26.5 87.5t-102.5 37.5q-20 4 -24.5 14.5t1.5 22.5l17 41q10 16 34 17h519q12 0 23 -6.5t3 -28.5l-12 -35q-6 -16 -17.5 -20.5t-21.5 -8.5q-39 -8 -71.5 -34.5t-32.5 -86.5v-81h161q139 0 234.5 -28t155 -75 t86 -109.5t26.5 -129.5q0 -80 -32.5 -149t-94 -120t-153 -80.5t-207.5 -29.5h-176v-193q0 -66 27.5 -87t103.5 -38q20 -4 24 -14t-2 -23l-16 -41q-10 -16 -35 -16h-520q-12 0 -23.5 6t-3.5 29zM494 522h135q39 0 79 12.5t70.5 43t50 81t19.5 123.5q0 129 -59.5 184.5 t-186.5 55.5h-108v-500z" />
<glyph unicode="&#xdf;" horiz-adv-x="1423" d="M41 31l12 32q6 16 17.5 19.5t21.5 7.5q39 6 72 30.5t33 78.5v665h-119v66l119 51v162q0 59 32.5 124.5t97 121t158 91.5t215.5 36q104 0 181 -25t127.5 -66t74 -92t23.5 -104q0 -74 -28.5 -126t-63.5 -97t-63.5 -86t-28.5 -95q0 -37 34.5 -70.5t87 -69.5t114 -77 t113.5 -89t87 -106.5t35 -131.5q0 -70 -32 -126.5t-86 -96.5t-127 -61.5t-153 -21.5q-111 0 -192.5 19.5t-110.5 38.5l-51 182q-6 18 10 35l54 43q8 6 18 10t14 -6l74 -127q6 -10 17.5 -26.5t30 -32t45 -26.5t67.5 -11q66 0 118 36.5t52 110.5q0 53 -35 96t-86 80t-112.5 73 t-113 78t-86 91t-34.5 115q0 76 33.5 132t74.5 107t74 102.5t33 116.5q0 49 -20.5 83t-50.5 54.5t-62.5 30t-59.5 9.5q-29 0 -68.5 -10.5t-74.5 -36t-59.5 -70.5t-24.5 -113v-960q0 -59 27.5 -79t103.5 -34q37 -6 23 -35l-17 -37q-10 -14 -35 -14h-503q-12 0 -23.5 5 t-3.5 26z" />
<glyph unicode="&#xe0;" horiz-adv-x="1044" d="M35 289q0 86 46 148.5t171 103.5q100 35 204.5 67.5t176.5 75.5v111q0 49 -13.5 80.5t-33 51t-43 27t-47.5 7.5q-16 0 -40 -8.5t-48.5 -24t-46 -40t-33.5 -61.5q-8 -39 -33 -59h-2q-4 -4 -8 -6q-29 -16 -55.5 -17.5t-43.5 3.5h-2q-2 0 -1 1t-1 1h-2q-33 12 -57 38 q-6 8 -6 11l-2 4q-4 4 -4 7t-2 7q-6 16 -5 33q4 82 115 139.5t320 57.5q129 0 200.5 -30t106.5 -73t43 -93t8 -89v-37v-10v-496q0 -53 15.5 -72.5t50.5 -33.5q10 -10 23 -14.5t22.5 -9.5t13.5 -12t-2 -22l-8 -39q-10 -16 -41 -16h-283q-55 -2 -55 61v50q-27 -18 -57.5 -39 t-66.5 -38.5t-78 -29.5t-87 -12q-76 0 -134 24.5t-97 65.5t-58.5 94t-19.5 113zM225 1473q0 43 25.5 67.5t60.5 24.5q41 0 80 -29t74 -59l233 -224q8 -61 -69 -61l-279 158q-45 25 -85 54.5t-40 68.5zM311 322q0 -88 47.5 -138.5t118.5 -50.5q25 0 51.5 7t49 25.5t38 50.5 t17.5 79v295q-35 -16 -90.5 -38t-110.5 -50q-63 -29 -92 -69t-29 -111z" />
<glyph unicode="&#xe1;" horiz-adv-x="1040" d="M23 289q0 86 46 148.5t171 103.5q100 35 204.5 67.5t176.5 75.5v111q0 49 -13.5 80.5t-33 51t-43 27t-48.5 7.5q-16 0 -39.5 -8.5t-48 -24t-46 -40t-34.5 -61.5q-8 -39 -32 -59h-2q-4 -4 -9 -6q-29 -16 -55.5 -17.5t-42.5 3.5h-2q-2 0 -1 1t-1 1h-2q-33 12 -57 38 q-6 8 -7 11l-2 4q-4 4 -4 7t-2 7q-6 16 -4 33q4 82 114.5 139.5t319.5 57.5q129 0 201 -30t106.5 -73t43 -93t8.5 -89v-37v-10v-496q0 -53 15 -72.5t50 -33.5q10 -10 23.5 -14.5t23 -9.5t13.5 -12t-2 -22l-9 -39q-10 -16 -41 -16h-282q-55 -2 -55 61v50q-27 -18 -58 -39 t-66.5 -38.5t-77.5 -29.5t-87 -12q-76 0 -134.5 24.5t-97.5 65.5t-58 94t-19 113zM297 1262l227 213q35 33 72 61.5t80 28.5q29 0 55.5 -26t26.5 -60q0 -41 -38 -71t-83 -58l-287 -162q-63 8 -53 74zM299 322q0 -88 47 -138.5t119 -50.5q25 0 51.5 7t49 25.5t37.5 50.5 t18 79v295q-35 -16 -90.5 -38t-110.5 -50q-63 -29 -92 -69t-29 -111z" />
<glyph unicode="&#xe2;" horiz-adv-x="1050" d="M33 289q0 86 46 148.5t171 103.5q100 35 204.5 67.5t176.5 75.5v111q0 49 -13.5 80.5t-33 51t-43 27t-47.5 7.5q-16 0 -40 -8.5t-48.5 -24t-46 -40t-33.5 -61.5q-8 -39 -33 -59h-2q-4 -4 -8 -6q-29 -16 -55.5 -17.5t-43.5 3.5h-2q-2 0 -1 1t-1 1h-2q-33 12 -57 38 q-6 8 -6 11l-2 4q-4 4 -4 7t-3 7q-6 16 -4 33q4 82 115 139.5t320 57.5q129 0 200.5 -30t106.5 -73t43 -93t8 -89v-37v-10v-496q0 -53 15.5 -72.5t50.5 -33.5q10 -10 23 -14.5t22.5 -9.5t13.5 -12t-2 -22l-8 -39q-10 -16 -41 -16h-283q-55 -2 -55 61v50q-27 -18 -57.5 -39 t-66.5 -38.5t-78 -29.5t-87 -12q-76 0 -134 24.5t-97 65.5t-58.5 94t-19.5 113zM160 1200l270 313h148l270 -313q-4 -23 -34 -24.5t-52 8.5l-258 192l-258 -192q-23 -10 -52.5 -8t-33.5 24zM309 322q0 -88 47 -138.5t119 -50.5q25 0 51.5 7t49 25.5t38 50.5t17.5 79v295 q-35 -16 -90.5 -38t-110.5 -50q-63 -29 -92 -69t-29 -111z" />
<glyph unicode="&#xe3;" horiz-adv-x="1062" d="M39 289q0 86 46 148.5t171 103.5q100 35 204.5 67.5t176.5 75.5v111q0 49 -13.5 80.5t-33 51t-43 27t-47.5 7.5q-16 0 -40 -8.5t-48.5 -24t-46 -40t-33.5 -61.5q-8 -39 -33 -59h-2q-4 -4 -8 -6q-29 -16 -55.5 -17.5t-43.5 3.5h-2q-2 0 -1 1t-1 1h-2q-33 12 -57 38 q-6 8 -6 11l-2 4q-4 4 -4 7t-2 7q-6 16 -4 33q4 82 114.5 139.5t319.5 57.5q129 0 200.5 -30t106.5 -73t43 -93t8 -89v-37v-10v-496q0 -53 15.5 -72.5t50.5 -33.5q10 -10 23.5 -14.5t22.5 -9.5t13 -12t-2 -22l-8 -39q-10 -16 -41 -16h-283q-55 -2 -55 61v50 q-27 -18 -57.5 -39t-66.5 -38.5t-78 -29.5t-87 -12q-76 0 -134 24.5t-97 65.5t-58.5 94t-19.5 113zM109 1202q8 39 27.5 77t49 66.5t70.5 47t90 18.5q47 0 83 -16.5t71 -34.5q37 -20 71.5 -40t87.5 -20q59 0 99.5 36t44.5 69q14 16 40.5 12t30.5 -24q-2 -37 -21 -76t-51 -72 t-75 -53.5t-92 -20.5q-72 0 -111 17.5t-69 38.5q-31 20 -64 36.5t-86 16.5q-25 0 -46 -9t-38.5 -22.5t-29 -30t-13.5 -28.5q-6 -6 -17 -9t-22.5 -2t-20.5 7t-9 16zM315 322q0 -88 47.5 -138.5t118.5 -50.5q25 0 51.5 7t49 25.5t38 50.5t17.5 79v295q-35 -16 -90 -38 t-111 -50q-63 -29 -92 -69t-29 -111z" />
<glyph unicode="&#xe4;" horiz-adv-x="1060" d="M39 289q0 86 46 148.5t171 103.5q100 35 204.5 67.5t176.5 75.5v111q0 49 -13.5 80.5t-33 51t-43 27t-47.5 7.5q-16 0 -40 -8.5t-48.5 -24t-46 -40t-33.5 -61.5q-8 -39 -33 -59h-2q-4 -4 -8 -6q-29 -16 -55.5 -17.5t-43.5 3.5h-2q-2 0 -1 1t-1 1h-2q-33 12 -57 38 q-6 8 -6 11l-2 4q-4 4 -4 7t-2 7q-6 16 -4 33q4 82 114.5 139.5t319.5 57.5q129 0 200.5 -30t106.5 -73t43 -93t8 -89v-37v-10v-496q0 -53 15.5 -72.5t50.5 -33.5q10 -10 23.5 -14.5t22.5 -9.5t13 -12t-2 -22l-8 -39q-10 -16 -41 -16h-283q-55 -2 -55 61v50 q-27 -18 -57.5 -39t-66.5 -38.5t-78 -29.5t-87 -12q-76 0 -134 24.5t-97 65.5t-58.5 94t-19.5 113zM164 1288q0 43 35 79t80 36q47 0 81.5 -34t34.5 -81t-34.5 -82t-81.5 -35t-81 35t-34 82zM315 322q0 -88 47.5 -138.5t118.5 -50.5q25 0 51.5 7t49 25.5t38 50.5t17.5 79 v295q-35 -16 -90 -38t-111 -50q-63 -29 -92 -69t-29 -111zM610 1288q0 43 35 79t80 36q47 0 82 -34t35 -81t-35 -82t-82 -35t-81 35t-34 82z" />
<glyph unicode="&#xe5;" horiz-adv-x="1044" d="M31 289q0 86 46 148.5t171 103.5q100 35 204.5 67.5t176.5 75.5v111q0 49 -13.5 80.5t-33 51t-43 27t-47.5 7.5q-16 0 -40 -8.5t-48.5 -24t-46 -40t-33.5 -61.5q-8 -39 -33 -59h-2q-4 -4 -8 -6q-29 -16 -55.5 -17.5t-43.5 3.5h-2q-2 0 -1 1t-1 1h-2q-33 12 -57 38 q-6 8 -6 11l-2 4q-4 4 -4.5 7t-2.5 7q-6 16 -4 33q4 82 115 139.5t320 57.5q129 0 200.5 -30t106.5 -73t43 -93t8 -89v-37v-10v-496q0 -53 15 -72.5t50 -33.5q10 -10 23.5 -14.5t23 -9.5t13.5 -12t-2 -22l-8 -39q-10 -16 -41 -16h-283q-55 -2 -55 61v50q-27 -18 -57.5 -39 t-66.5 -38.5t-78 -29.5t-87 -12q-76 0 -134.5 24.5t-97 65.5t-58 94t-19.5 113zM279 1354q0 41 16 77.5t45 65.5t66.5 45.5t78.5 16.5t78 -16.5t64.5 -44.5t44 -65.5t16.5 -78.5t-16.5 -78t-44 -64.5t-64.5 -44t-80 -16.5q-41 0 -77.5 16.5t-65.5 44t-45 64.5t-16 78z M307 322q0 -88 47 -138.5t119 -50.5q25 0 51.5 7t49 25.5t38 50.5t17.5 79v295q-35 -16 -90.5 -38t-110.5 -50q-63 -29 -92 -69t-29 -111zM373 1354q0 -43 33.5 -76t76.5 -33t77 33t34 76t-33 76.5t-78 33.5t-77.5 -31.5t-32.5 -78.5z" />
<glyph unicode="&#xe6;" horiz-adv-x="1650" d="M45 260q0 121 86 201t227 133l304 115q2 113 -39 176t-131 63q-84 0 -133.5 -55t-86.5 -135q-8 -25 -36 -17l-101 33q-10 6 -17 14.5t-3 26.5l26 96q12 43 32 57.5t36 20.5q70 25 152.5 42.5t164.5 17.5q117 0 197 -28t131 -81q133 109 332 109q104 0 183 -34t131 -95.5 t79 -146.5t27 -187q0 -29 -12.5 -55.5t-34.5 -26.5h-609q0 -76 18.5 -145.5t57.5 -124t96.5 -86t134.5 -31.5q90 0 147.5 32.5t111.5 92.5q8 6 21 5t24.5 -7.5t17.5 -16.5t0 -22l-66 -133q-8 -14 -17 -27.5t-26 -24.5q-18 -8 -45.5 -15t-61.5 -13t-67.5 -9.5t-64.5 -3.5 q-88 0 -163 19.5t-135.5 52.5t-106.5 74t-74 84q-41 -70 -89.5 -114t-100.5 -69.5t-104 -36t-104 -10.5q-59 0 -115.5 20.5t-99.5 57.5t-68.5 89.5t-25.5 117.5zM315 299q0 -70 36 -119t106 -49q90 0 149.5 71.5t59.5 215.5v188q-154 -49 -252.5 -124.5t-98.5 -182.5z M950 614h334q80 0 80 91q0 70 -16.5 115.5t-42 74.5t-58.5 41t-65 12q-55 0 -98.5 -27.5t-73 -74.5t-45 -107.5t-15.5 -124.5z" />
<glyph unicode="&#xe7;" horiz-adv-x="987" d="M25 512q0 119 40.5 217t117.5 169t186.5 111t244.5 40q76 0 137.5 -7.5t114.5 -19.5q33 -8 51.5 -24.5t14.5 -39.5v-159q0 -6 -3 -12.5t-7 -10.5l-45 -28q-6 -4 -14.5 5t-17.5 25.5t-20.5 36t-21.5 35.5q-57 88 -187 88q-72 0 -128 -33t-95 -88t-59.5 -131t-20.5 -162 q0 -82 20.5 -155.5t60.5 -130t99.5 -89t137.5 -32.5q90 0 147.5 32.5t112.5 92.5q8 6 20.5 5t23.5 -7.5t17 -16.5t0 -22l-65 -133q-8 -14 -16.5 -27.5t-24.5 -24.5q-18 -8 -46 -15t-61.5 -13t-67.5 -9.5t-65 -3.5q-51 0 -84 9l-47 -117q27 6 60 6q31 0 59.5 -8t52 -25.5 t37.5 -44t14 -63.5q0 -41 -23.5 -74t-60 -54.5t-84 -32.5t-96.5 -11q-41 0 -80 8t-61 18q-14 18 -7 39t29 27q16 -4 49 -11.5t56 -7.5q41 0 73.5 16.5t32.5 69.5q0 35 -19.5 53.5t-43.5 20.5q-23 4 -43.5 1t-42.5 -7l-15 10l84 201q-102 20 -181 68.5t-132 117t-80.5 152.5 t-27.5 176z" />
<glyph unicode="&#xe8;" horiz-adv-x="999" d="M33 502q0 129 39 230.5t109.5 172t165.5 107.5t210 37q104 0 183 -34t131.5 -95.5t79 -146.5t26.5 -187q0 -29 -12.5 -55.5t-34.5 -26.5h-608q0 -76 18 -145.5t57 -124t96.5 -86t135.5 -31.5q90 0 147.5 32.5t110.5 92.5q8 6 21.5 5t24.5 -7.5t17 -16.5t0 -22l-65 -133 q-8 -14 -17.5 -27.5t-25.5 -24.5q-18 -8 -46 -15t-62 -13t-67.5 -9.5t-64.5 -3.5q-137 0 -242.5 43t-178 115t-110.5 168t-38 201zM205 1473q0 43 25.5 67.5t60.5 24.5q41 0 80 -29t73 -59l234 -224q8 -61 -70 -61l-278 158q-45 25 -85 54.5t-40 68.5zM322 614h333 q80 0 80 91q0 70 -16.5 115.5t-42 74.5t-58 41t-65.5 12q-55 0 -98 -27.5t-73 -74.5t-45 -107.5t-15 -124.5z" />
<glyph unicode="&#xe9;" horiz-adv-x="999" d="M20 502q0 129 39 230.5t110 172t166 107.5t210 37q104 0 183 -34t131 -95.5t79 -146.5t27 -187q0 -29 -12.5 -55.5t-34.5 -26.5h-609q0 -76 18.5 -145.5t57.5 -124t96.5 -86t134.5 -31.5q90 0 147.5 32.5t110.5 92.5q8 6 21.5 5t25 -7.5t17.5 -16.5t0 -22l-66 -133 q-8 -14 -17 -27.5t-26 -24.5q-18 -8 -45.5 -15t-61.5 -13t-67.5 -9.5t-64.5 -3.5q-137 0 -242.5 43t-178.5 115t-111 168t-38 201zM309 614h334q80 0 80 91q0 70 -16.5 115.5t-42 74.5t-58.5 41t-65 12q-55 0 -98.5 -27.5t-73 -74.5t-45 -107.5t-15.5 -124.5zM356 1262 l228 213q35 33 71.5 61.5t79.5 28.5q29 0 55.5 -26t26.5 -60q0 -41 -38 -71t-83 -58l-286 -162q-63 8 -54 74z" />
<glyph unicode="&#xea;" horiz-adv-x="1005" d="M29 502q0 129 38.5 230.5t109.5 172t166 107.5t210 37q104 0 183 -34t131.5 -95.5t79 -146.5t26.5 -187q0 -29 -12.5 -55.5t-34.5 -26.5h-609q0 -76 18.5 -145.5t57.5 -124t96.5 -86t135.5 -31.5q90 0 147 32.5t111 92.5q8 6 21.5 5t24.5 -7.5t17 -16.5t0 -22l-65 -133 q-8 -14 -17.5 -27.5t-25.5 -24.5q-18 -8 -46 -15t-62 -13t-67.5 -9.5t-64.5 -3.5q-137 0 -242.5 43t-178.5 115t-110.5 168t-37.5 201zM186 1200l271 313h147l270 -313q-4 -23 -33.5 -24.5t-52.5 8.5l-258 192l-258 -192q-23 -10 -52.5 -8t-33.5 24zM317 614h334q80 0 80 91 q0 70 -16.5 115.5t-42 74.5t-58 41t-65.5 12q-55 0 -98 -27.5t-73 -74.5t-45.5 -107.5t-15.5 -124.5z" />
<glyph unicode="&#xeb;" horiz-adv-x="1015" d="M35 502q0 129 39 230.5t109.5 172t165.5 107.5t210 37q104 0 183 -34t131.5 -95.5t79 -146.5t26.5 -187q0 -29 -12.5 -55.5t-34.5 -26.5h-608q0 -76 18 -145.5t57 -124t96.5 -86t135.5 -31.5q90 0 147.5 32.5t110.5 92.5q8 6 21.5 5t24.5 -7.5t17 -16.5t0 -22l-65 -133 q-8 -14 -17.5 -27.5t-25.5 -24.5q-18 -8 -46 -15t-62 -13t-67.5 -9.5t-64.5 -3.5q-137 0 -242.5 43t-178 115t-110.5 168t-38 201zM166 1288q0 43 35 79t80 36q47 0 81.5 -34t34.5 -81t-34.5 -82t-81.5 -35t-81 35t-34 82zM324 614h333q80 0 80 91q0 70 -16 115.5t-42 74.5 t-58.5 41t-65.5 12q-55 0 -98 -27.5t-73 -74.5t-45 -107.5t-15 -124.5zM612 1288q0 43 35 79t80 36q47 0 82 -34t35 -81t-35 -82t-82 -35t-81 35t-34 82z" />
<glyph unicode="&#xec;" horiz-adv-x="634" d="M27 1473q0 43 25.5 67.5t60.5 24.5q41 0 79.5 -29t73.5 -59l234 -224q8 -61 -70 -61l-278 158q-45 25 -85 54.5t-40 68.5zM37 967l18 41q4 12 12.5 14t18.5 2h377v-805q0 -66 27.5 -87t103.5 -38q20 -4 24.5 -14t-2.5 -23l-16 -41q-10 -16 -35 -16h-348q-12 0 -19.5 4 t-7.5 31v184v586q0 33 -6 53.5t-20 33.5t-39 20.5t-59 15.5q-16 4 -27.5 12t-1.5 27z" />
<glyph unicode="&#xed;" horiz-adv-x="643" d="M23 967l18 41q4 12 12 14t19 2h377v-805q0 -66 27.5 -87t103.5 -38q20 -4 24 -14t-2 -23l-16 -41q-10 -16 -35 -16h-348q-12 0 -19.5 4t-7.5 31v184v586q0 33 -6 53.5t-20.5 33.5t-39 20.5t-59.5 15.5q-16 4 -27.5 12t-0.5 27zM135 1262l227 213q35 33 72 61.5t80 28.5 q29 0 55.5 -26t26.5 -60q0 -41 -38 -71t-83 -58l-287 -162q-63 8 -53 74z" />
<glyph unicode="&#xee;" horiz-adv-x="729" d="M16 1200l271 313h147l271 -313q-4 -23 -34 -24.5t-53 8.5l-258 192l-258 -192q-23 -10 -52.5 -8t-33.5 24zM96 967l19 41q4 12 12 14t18 2h377v-805q0 -66 28 -87t103 -38q20 -4 24.5 -14t-1.5 -23l-17 -41q-10 -16 -34 -16h-349q-12 0 -19 4t-7 31v184v586q0 33 -6 53.5 t-20.5 33.5t-39 20.5t-59.5 15.5q-16 4 -27.5 12t-1.5 27z" />
<glyph unicode="&#xef;" horiz-adv-x="741" d="M27 1288q0 43 34.5 79t79.5 36q47 0 82 -34t35 -81t-35 -82t-82 -35t-80.5 35t-33.5 82zM78 967l18 41q4 12 12.5 14t18.5 2h377v-805q0 -66 27.5 -87t103.5 -38q20 -4 24.5 -14t-2.5 -23l-16 -41q-10 -16 -35 -16h-348q-12 0 -19.5 4t-7.5 31v184v586q0 33 -6 53.5 t-20.5 33.5t-39 20.5t-59.5 15.5q-16 4 -27 12t-1 27zM473 1288q0 43 35 79t80 36q47 0 82 -34t35 -81t-35 -82t-82 -35t-81 35t-34 82z" />
<glyph unicode="&#xf0;" horiz-adv-x="1165" d="M33 492q0 121 46 223t120.5 176t169 116t192.5 42q29 0 62.5 -4.5t93.5 -20.5q-57 109 -133 172l-265 -94l-124 86l264 104q-49 35 -96.5 58.5t-83.5 42.5q-12 6 -15.5 12t-3.5 14q0 12 22.5 25.5t53.5 26t64.5 19.5t58.5 7q10 0 23.5 -5t23.5 -9q18 -10 64 -35t112 -72 l248 97l135 -99l-262 -96q70 -66 130 -146.5t103 -173t67.5 -196t24.5 -213.5q0 -117 -39.5 -221.5t-114.5 -182t-181.5 -124t-239.5 -46.5q-127 0 -223.5 46.5t-163 120t-100 165.5t-33.5 185zM322 563q0 -119 23.5 -208t61 -149.5t85 -90t96.5 -29.5q76 0 125 37 t76.5 96.5t39 133t11.5 147.5q0 100 -19.5 181t-53.5 138.5t-81 88t-102 30.5q-66 0 -115 -33t-82 -86t-49 -120.5t-16 -135.5z" />
<glyph unicode="&#xf1;" horiz-adv-x="1357" d="M41 35l12 35q6 16 17.5 20t21.5 8q39 8 72 35t33 86v586q0 33 -6.5 53.5t-20.5 33.5t-39 20.5t-59 15.5q-16 4 -27.5 12t-1.5 27l18 41q4 12 12.5 14t18.5 2h328q16 0 32.5 -4t16.5 -37v-158h4q35 57 84 99.5t103.5 70t110.5 41t106 13.5q137 0 213.5 -83t76.5 -268v-479 q0 -66 28 -87t103 -38q20 -4 24.5 -14t-1.5 -23l-16 -41q-10 -16 -35 -16h-492q-10 0 -20 6t-4 29l12 35q6 16 15.5 20t19.5 8q35 8 64.5 35t29.5 86v369q0 84 -10.5 138t-30.5 86t-50 44t-69 12q-53 0 -101 -28.5t-85 -92t-58.5 -165t-21.5 -246.5v-117q0 -66 24.5 -87 t94.5 -38q16 -4 20 -14t0 -23l-16 -41q-6 -16 -31 -16h-493q-12 0 -23.5 6t-3.5 29zM299 1202q8 39 27.5 77t49.5 66.5t71 47t90 18.5q47 0 82.5 -16.5t70.5 -34.5q37 -20 72 -40t88 -20q59 0 99 36t44 69q14 16 41 12t31 -24q-2 -37 -21.5 -76t-51 -72t-75 -53.5 t-92.5 -20.5q-72 0 -110.5 17.5t-69.5 38.5q-31 20 -63.5 36.5t-85.5 16.5q-25 0 -46.5 -9t-39 -22.5t-28.5 -30t-13 -28.5q-6 -6 -17.5 -9t-23 -2t-20.5 7t-9 16z" />
<glyph unicode="&#xf2;" horiz-adv-x="1148" d="M31 492q0 121 43 223t119.5 176t181 116t229.5 42q123 0 220.5 -43t164 -116t102 -166t35.5 -192q0 -111 -39.5 -211t-114.5 -176.5t-181.5 -123t-239.5 -46.5q-127 0 -223.5 46.5t-163 120t-100 165.5t-33.5 185zM279 1473q0 43 25.5 67.5t60.5 24.5q41 0 79.5 -29 t73.5 -59l234 -224q8 -61 -70 -61l-279 158q-45 25 -84.5 54.5t-39.5 68.5zM319 563q0 -119 24 -208t61.5 -149.5t85 -90t96.5 -29.5q76 0 125 37t76.5 96.5t39 133t11.5 147.5q0 100 -19.5 181t-53.5 138.5t-81 88t-102 30.5q-66 0 -115 -33t-82 -86t-49.5 -120.5 t-16.5 -135.5z" />
<glyph unicode="&#xf3;" horiz-adv-x="1146" d="M20 492q0 121 43 223t120 176t181.5 116t229.5 42q123 0 220 -43t163.5 -116t102.5 -166t36 -192q0 -111 -40 -211t-114.5 -176.5t-181 -123t-239.5 -46.5q-127 0 -223.5 46.5t-163 120t-100.5 165.5t-34 185zM309 563q0 -119 23.5 -208t61.5 -149.5t85 -90t96 -29.5 q76 0 125.5 37t77 96.5t38.5 133t11 147.5q0 100 -19.5 181t-53 138.5t-80.5 88t-103 30.5q-66 0 -114.5 -33t-81.5 -86t-49.5 -120.5t-16.5 -135.5zM432 1262l227 213q35 33 72 61.5t80 28.5q29 0 55.5 -26t26.5 -60q0 -41 -38 -71t-83 -58l-287 -162q-63 8 -53 74z" />
<glyph unicode="&#xf4;" horiz-adv-x="1155" d="M31 492q0 121 43 223t119.5 176t181 116t229.5 42q123 0 220.5 -43t164 -116t102 -166t35.5 -192q0 -111 -39.5 -211t-114.5 -176.5t-181.5 -123t-239.5 -46.5q-127 0 -223.5 46.5t-163 120t-100 165.5t-33.5 185zM233 1200l271 313h147l271 -313q-4 -23 -34 -24.5 t-52 8.5l-258 192l-259 -192q-23 -10 -52 -8t-34 24zM319 563q0 -119 24 -208t61.5 -149.5t85 -90t96.5 -29.5q76 0 125 37t76.5 96.5t39 133t11.5 147.5q0 100 -19.5 181t-53.5 138.5t-81 88t-102 30.5q-66 0 -115 -33t-82 -86t-49.5 -120.5t-16.5 -135.5z" />
<glyph unicode="&#xf5;" horiz-adv-x="1165" d="M35 492q0 121 43 223t119.5 176t181 116t229.5 42q123 0 220.5 -43t164 -116t102 -166t35.5 -192q0 -111 -39.5 -211t-114.5 -176.5t-181.5 -123t-239.5 -46.5q-127 0 -223 46.5t-163 120t-100.5 165.5t-33.5 185zM199 1202q8 39 27.5 77t49 66.5t70.5 47t90 18.5 q47 0 83 -16.5t71 -34.5q37 -20 71.5 -40t88.5 -20q59 0 99 36t44 69q14 16 41 12t31 -24q-2 -37 -21.5 -76t-51.5 -72t-75 -53.5t-92 -20.5q-72 0 -111 17.5t-69 38.5q-31 20 -63.5 36.5t-86.5 16.5q-25 0 -46 -9t-38.5 -22.5t-29 -30t-13.5 -28.5q-6 -6 -17 -9t-22.5 -2 t-20.5 7t-9 16zM324 563q0 -119 23.5 -208t61 -149.5t85 -90t96.5 -29.5q76 0 125 37t76.5 96.5t39 133t11.5 147.5q0 100 -19.5 181t-53.5 138.5t-81 88t-102 30.5q-66 0 -115 -33t-82 -86t-49 -120.5t-16 -135.5z" />
<glyph unicode="&#xf6;" horiz-adv-x="1163" d="M35 492q0 121 43 223t119.5 176t181 116t229.5 42q123 0 220.5 -43t164 -116t102 -166t35.5 -192q0 -111 -39.5 -211t-114.5 -176.5t-181.5 -123t-239.5 -46.5q-127 0 -223 46.5t-163 120t-100.5 165.5t-33.5 185zM242 1288q0 43 34.5 79t79.5 36q47 0 82 -34t35 -81 t-35 -82t-82 -35t-80.5 35t-33.5 82zM324 563q0 -119 23.5 -208t61 -149.5t85 -90t96.5 -29.5q76 0 125 37t76.5 96.5t39 133t11.5 147.5q0 100 -19.5 181t-53.5 138.5t-81 88t-102 30.5q-66 0 -115 -33t-82 -86t-49 -120.5t-16 -135.5zM688 1288q0 43 35 79t80 36 q47 0 82 -34t35 -81t-35 -82t-82 -35t-81 35t-34 82z" />
<glyph unicode="&#xf7;" horiz-adv-x="1052" d="M10 438v160h1032v-160h-1032zM373 129q0 63 46 108.5t109 45.5q31 0 57.5 -12.5t48 -34t34 -49t12.5 -58.5t-12.5 -58.5t-33 -49t-48 -34t-56.5 -12.5q-66 0 -111.5 45.5t-45.5 108.5zM373 907q0 63 46 108.5t109 45.5q31 0 57.5 -12.5t48 -34t34 -49t12.5 -58.5 t-12.5 -58.5t-33 -49t-48 -33.5t-56.5 -12q-66 0 -111.5 45t-45.5 108z" />
<glyph unicode="&#xf8;" horiz-adv-x="1191" d="M41 25l133 133q-61 72 -93 158.5t-32 175.5q0 121 43 223t120 176t181.5 116t229.5 42q100 0 182 -29t147 -82l127 127l74 -76l-125 -125q55 -68 86 -153.5t31 -178.5q0 -111 -40 -211t-115 -176.5t-181.5 -123t-239.5 -46.5q-100 0 -181 30t-140 79l-135 -135zM338 563 q0 -63 7 -117.5t20 -97.5l438 438q-70 152 -203 152q-66 0 -115 -33t-81.5 -86t-49 -120.5t-16.5 -135.5zM403 242q39 -80 92.5 -118t108.5 -38q76 0 125 37t77 96.5t39 133t11 147.5q0 96 -18 176z" />
<glyph unicode="&#xf9;" horiz-adv-x="1335" d="M37 967l18 41q4 12 12.5 14t18.5 2h328q16 0 32.5 -8t16.5 -47v-533q0 -84 9 -139t29.5 -88t51.5 -46t72 -13q51 0 100 39.5t82 99.5q41 74 51 175t10 224v117q0 51 -22.5 78.5t-91.5 44.5q-16 4 -27.5 12t-1.5 27l18 41q4 12 7.5 14t13.5 2h328q16 0 32.5 -8t16.5 -47 v-756q0 -39 9 -55.5t19 -26.5q18 -18 47 -24.5t52.5 -10.5t36 -14t-1.5 -35l-13 -29q-8 -16 -24.5 -17t-36.5 -1h-311q-16 0 -33 4t-17 37v113l-77 -60q-63 -49 -142.5 -84t-146.5 -35q-154 0 -233 83t-79 268v479q0 33 -6 53.5t-20 33.5t-39 20.5t-59 15.5q-16 4 -27.5 12 t-1.5 27zM342 1473q0 43 25.5 67.5t60.5 24.5q41 0 80 -29t74 -59l233 -224q8 -61 -70 -61l-278 158q-45 25 -85 54.5t-40 68.5z" />
<glyph unicode="&#xfa;" horiz-adv-x="1335" d="M29 967l18 41q4 12 12.5 14t18.5 2h328q16 0 32.5 -8t16.5 -47v-533q0 -84 9 -139t29.5 -88t51 -46t71.5 -13q51 0 100.5 39.5t82.5 99.5q41 74 51 175t10 224v117q0 51 -22.5 78.5t-92.5 44.5q-16 4 -27 12t-1 27l18 41q4 12 7 14t14 2h327q16 0 33 -8t17 -47v-756 q0 -39 9 -55.5t19 -26.5q18 -18 47 -24.5t52.5 -10.5t36 -14t-2.5 -35l-12 -29q-8 -16 -24.5 -17t-36.5 -1h-312q-16 0 -32.5 4t-16.5 37v113l-78 -60q-63 -49 -142 -84t-146 -35q-154 0 -233 83t-79 268v479q0 33 -6 53.5t-20.5 33.5t-39 20.5t-59.5 15.5q-16 4 -27.5 12 t-0.5 27zM528 1262l228 213q35 33 71.5 61.5t79.5 28.5q29 0 55.5 -26t26.5 -60q0 -41 -38 -71t-83 -58l-286 -162q-63 8 -54 74z" />
<glyph unicode="&#xfb;" horiz-adv-x="1339" d="M35 967l18 41q4 12 12.5 14t18.5 2h328q16 0 32.5 -8t16.5 -47v-533q0 -84 9 -139t29.5 -88t51.5 -46t72 -13q51 0 100 39.5t82 99.5q41 74 51 175t10 224v117q0 51 -22.5 78.5t-91.5 44.5q-16 4 -27.5 12t-1.5 27l18 41q4 12 7.5 14t13.5 2h328q16 0 32.5 -8t16.5 -47 v-756q0 -39 9 -55.5t19 -26.5q18 -18 47 -24.5t52.5 -10.5t36 -14t-2.5 -35l-12 -29q-8 -16 -24.5 -17t-36.5 -1h-312q-16 0 -32.5 4t-16.5 37v113l-78 -60q-63 -49 -142 -84t-146 -35q-154 0 -233 83t-79 268v479q0 33 -6 53.5t-20.5 33.5t-39 20.5t-59.5 15.5 q-16 4 -27 12t-1 27zM326 1200l270 313h147l271 -313q-4 -23 -34 -24.5t-52 8.5l-258 192l-258 -192q-23 -10 -52.5 -8t-33.5 24z" />
<glyph unicode="&#xfc;" horiz-adv-x="1347" d="M39 967l18 41q4 12 12.5 14t18.5 2h328q16 0 32.5 -8t16.5 -47v-533q0 -84 9 -139t29.5 -88t51.5 -46t72 -13q51 0 100 39.5t82 99.5q41 74 51 175t10 224v117q0 51 -22.5 78.5t-91.5 44.5q-16 4 -27.5 12t-1.5 27l18 41q4 12 7.5 14t13.5 2h328q16 0 32.5 -8t16.5 -47 v-756q0 -39 9 -55.5t19 -26.5q18 -18 47 -24.5t52.5 -10.5t36 -14t-1.5 -35l-13 -29q-8 -16 -24.5 -17t-36.5 -1h-311q-16 0 -33 4t-17 37v113l-77 -60q-63 -49 -142.5 -84t-146.5 -35q-154 0 -232.5 83t-78.5 268v479q0 33 -6.5 53.5t-20.5 33.5t-39 20.5t-59 15.5 q-16 4 -27.5 12t-1.5 27zM334 1288q0 43 35 79t80 36q47 0 81.5 -34t34.5 -81t-34.5 -82t-81.5 -35t-81 35t-34 82zM780 1288q0 43 35 79t80 36q47 0 82 -34t35 -81t-35 -82t-82 -35t-81 35t-34 82z" />
<glyph unicode="&#xfd;" horiz-adv-x="1189" d="M20 950l19 49q8 25 39 25h448q23 0 33 -7t2 -28l-16 -41q-6 -14 -29.5 -23.5t-45 -21.5t-34 -34.5t5.5 -65.5l207 -500l240 520q12 27 6 45.5t-24.5 29.5t-42 18.5t-43 13.5t-32 14t-5.5 21l12 22q4 10 12 23.5t21 13.5h321q27 0 47.5 -5t9.5 -36l-10 -35q-4 -14 -14 -21 t-23.5 -13.5t-27 -14.5t-25.5 -20q-10 -12 -20.5 -32t-28.5 -59l-551 -1153q-29 -66 -65.5 -106.5t-104.5 -40.5h-92q-23 0 -39 4t-27 29l-24 57q-8 20 3 26.5t30 10.5l100 31q29 8 66.5 40.5t72.5 110.5l105 226l-338 765q-31 70 -52.5 91.5t-42.5 31.5q-23 10 -36 17.5 t-7 21.5zM461 1262l227 213q35 33 72 61.5t80 28.5q29 0 55.5 -26t26.5 -60q0 -41 -38 -71t-83 -58l-287 -162q-63 8 -53 74z" />
<glyph unicode="&#xfe;" horiz-adv-x="1265" d="M47 -477l12 35q6 16 17.5 20t21.5 8q39 8 72 35t33 86v1579q0 33 -6.5 53.5t-20.5 33.5t-38.5 20.5t-59.5 15.5q-16 4 -27.5 12.5t-1.5 26.5l19 41q4 12 12 14t18 2h322q31 0 43 -16t12 -47v-604h4q59 98 162.5 154.5t220.5 56.5q92 0 166 -40t124 -105.5t77.5 -151.5 t27.5 -179q0 -127 -46 -236.5t-129 -189t-195.5 -126t-247.5 -46.5q-39 0 -78 5.5t-88 19.5v-293q0 -66 37 -87t135 -38q29 -4 34 -14t-3 -23l-23 -41q-12 -16 -45 -16h-534q-12 0 -23.5 6t-3.5 29zM473 403q0 -68 8 -126t29.5 -101t60.5 -68.5t101 -25.5q74 0 129 39 t93 101.5t56.5 140t18.5 157.5q0 63 -13.5 129t-43 119t-74 87t-105.5 34q-68 0 -116 -41t-80.5 -108.5t-48 -154.5t-15.5 -182z" />
<glyph unicode="&#xff;" horiz-adv-x="1196" d="M27 950l18 49q8 25 39 25h448q23 0 33 -7t2 -28l-16 -41q-6 -14 -29.5 -23.5t-45 -21.5t-34 -34.5t6.5 -65.5l206 -500l240 520q12 27 6 45.5t-24.5 29.5t-42 18.5t-43 13.5t-31.5 14t-6 21l12 22q4 10 12 23.5t21 13.5h321q27 0 47.5 -5t10.5 -36l-11 -35 q-4 -14 -14 -21t-23.5 -13.5t-26.5 -14.5t-26 -20q-10 -12 -20 -32t-29 -59l-551 -1153q-29 -66 -65.5 -106.5t-104.5 -40.5h-92q-23 0 -39 4t-26 29l-25 57q-8 20 3 26.5t30 10.5l100 31q29 8 66.5 40.5t72.5 110.5l105 226l-338 765q-31 70 -52.5 91.5t-41.5 31.5 q-23 10 -36.5 17.5t-6.5 21.5zM262 1288q0 43 35 79t80 36q47 0 82 -34t35 -81t-35 -82t-82 -35t-81 35t-34 82zM709 1288q0 43 34.5 79t79.5 36q47 0 82 -34t35 -81t-35 -82t-82 -35t-80.5 35t-33.5 82z" />
<glyph unicode="&#x152;" horiz-adv-x="2127" d="M43 696q0 172 63.5 312.5t172 241t251 154.5t301.5 54q68 4 134.5 0t138.5 -10q74 -4 159 -9t189 -5h479q29 0 46.5 -14.5t13.5 -37.5v-163q0 -8 -11 -19l-36 -31q-12 -10 -25.5 12.5t-35 53.5t-54.5 57.5t-84 26.5h-299v-483h473q20 0 28.5 -8.5t-1.5 -22.5l-37 -64 q-10 -16 -25.5 -22t-40.5 -6h-397v-398q0 -121 32.5 -160.5t116.5 -39.5h166q76 0 121 27.5t72.5 61.5t41 59.5t23.5 23.5l52 -17q12 -4 12 -18v-201q0 -25 -26.5 -38t-67.5 -13h-521q-111 0 -200.5 -4t-167.5 -8t-147.5 -8.5t-141.5 -4.5q-156 0 -295 49.5t-244.5 142.5 t-167 226t-61.5 303zM352 770q0 -170 36 -295t100.5 -207t156.5 -120.5t207 -38.5q152 0 228.5 35.5t76.5 146.5v885q0 57 -26.5 87.5t-73.5 44t-110.5 15.5t-135.5 2q-135 0 -224 -58.5t-141.5 -142.5t-73 -181t-20.5 -173z" />
<glyph unicode="&#x153;" horiz-adv-x="1832" d="M45 492q0 121 43 223t120 176t182.5 116t230.5 42q119 0 212 -40t158 -108q86 78 177.5 113t197.5 35q104 0 183 -34t131.5 -95.5t79 -146.5t26.5 -187q0 -29 -12.5 -55.5t-34.5 -26.5h-609q0 -76 18.5 -145.5t57.5 -124t96.5 -86t135.5 -31.5q90 0 147 32.5t111 92.5 q8 6 21.5 5t24.5 -7.5t17 -16.5t0 -22l-65 -133q-8 -14 -17.5 -27.5t-25.5 -24.5q-18 -8 -46 -15t-62 -13t-67.5 -9.5t-64.5 -3.5q-127 0 -228.5 40t-195.5 128q-74 -78 -179.5 -123t-240.5 -45q-127 0 -224 46.5t-162.5 120t-100.5 165.5t-35 185zM334 563 q0 -119 23.5 -208t61.5 -149.5t85 -90t96 -29.5q76 0 125 37t76.5 96.5t39 133t11.5 147.5q0 100 -19.5 181t-53.5 138.5t-81 88t-102 30.5q-66 0 -115 -33t-81.5 -86t-49 -120.5t-16.5 -135.5zM1130 614h334q80 0 80 91q0 70 -16.5 115.5t-42 74.5t-58 41t-65.5 12 q-55 0 -98 -27.5t-73 -74.5t-45.5 -107.5t-15.5 -124.5z" />
<glyph unicode="&#x178;" horiz-adv-x="1345" d="M25 1372l16 43q4 12 14.5 15.5t22.5 3.5h463q10 0 18 -6.5t4 -20.5l-16 -45q-4 -14 -24.5 -21.5t-41.5 -29.5q-14 -12 -22 -35t6 -68l250 -518l293 531q25 47 10.5 70.5t-41.5 37.5q-29 16 -47.5 25.5t-7.5 27.5l18 35q4 4 8 9.5t15 5.5h340q31 0 22 -29l-10 -37 q-6 -16 -28.5 -24.5t-35.5 -14.5q-27 -10 -56.5 -33.5t-64.5 -91.5l-301 -547q-25 -47 -34 -98t-9 -98v-240q0 -66 28 -87t104 -38q20 -4 24 -14t-2 -23l-16 -41q-10 -16 -35 -16h-520q-12 0 -23.5 6t-3.5 29l12 35q6 16 17.5 20t21.5 8q39 8 72 35t33 86v334l-318 647 q-18 37 -32.5 59.5t-29 36t-27.5 20.5t-28 15q-18 8 -32.5 16.5t-5.5 24.5zM332 1657q0 43 34.5 79t79.5 36q47 0 82 -34t35 -81t-34.5 -82t-82.5 -35q-47 0 -80.5 35t-33.5 82zM778 1657q0 43 35 79t80 36q47 0 82 -34t35 -81t-35 -82t-82 -35t-81 35t-34 82z" />
<glyph unicode="&#x2c6;" horiz-adv-x="741" d="M27 1200l270 313h147l271 -313q-4 -23 -34 -24.5t-52 8.5l-258 192l-258 -192q-23 -10 -52.5 -8t-33.5 24z" />
<glyph unicode="&#x2dc;" horiz-adv-x="849" d="M41 1202q8 39 27.5 77t49 66.5t71 47t90.5 18.5q47 0 82.5 -16.5t70.5 -34.5q37 -20 72 -40t88 -20q59 0 99 36t44 69q14 16 41 12t31 -24q-2 -37 -21.5 -76t-51.5 -72t-75 -53.5t-92 -20.5q-72 0 -110.5 17.5t-69.5 38.5q-31 20 -63.5 36.5t-85.5 16.5q-25 0 -46.5 -9 t-39 -22.5t-28.5 -30t-13 -28.5q-6 -6 -17.5 -9t-23 -2t-20.5 7t-9 16z" />
<glyph unicode="&#x2000;" horiz-adv-x="966" />
<glyph unicode="&#x2001;" horiz-adv-x="1933" />
<glyph unicode="&#x2002;" horiz-adv-x="966" />
<glyph unicode="&#x2003;" horiz-adv-x="1933" />
<glyph unicode="&#x2004;" horiz-adv-x="644" />
<glyph unicode="&#x2005;" horiz-adv-x="483" />
<glyph unicode="&#x2006;" horiz-adv-x="322" />
<glyph unicode="&#x2007;" horiz-adv-x="322" />
<glyph unicode="&#x2008;" horiz-adv-x="241" />
<glyph unicode="&#x2009;" horiz-adv-x="386" />
<glyph unicode="&#x200a;" horiz-adv-x="107" />
<glyph unicode="&#x2010;" horiz-adv-x="620" d="M55 399v176h510v-176h-510z" />
<glyph unicode="&#x2011;" horiz-adv-x="620" d="M55 399v176h510v-176h-510z" />
<glyph unicode="&#x2012;" horiz-adv-x="620" d="M55 399v176h510v-176h-510z" />
<glyph unicode="&#x2013;" horiz-adv-x="1134" d="M55 410v155h1024v-155h-1024z" />
<glyph unicode="&#x2014;" horiz-adv-x="2158" d="M55 410v155h2048v-155h-2048z" />
<glyph unicode="&#x2018;" horiz-adv-x="397" d="M16 1032q0 20 16.5 58t43 84.5t57.5 95.5t61.5 94t55 80t37.5 51q25 10 47 10q23 0 32 -22.5t7 -44.5q-53 -57 -81 -122t-34 -124q-8 -59 0 -106.5t12 -81.5q4 -31 -7 -55.5t-31.5 -41t-45 -26t-49.5 -9.5q-39 0 -62.5 17.5t-36.5 42t-17.5 52.5t-4.5 48z" />
<glyph unicode="&#x2019;" horiz-adv-x="399" d="M27 940q53 57 80.5 121.5t33.5 124.5q8 59 0 106t-12 82q-4 31 7 55.5t31.5 41t45 25.5t49.5 9q39 0 62.5 -17.5t37 -42t17.5 -52t4 -47.5t-16.5 -58.5t-43 -84.5t-57 -95t-61.5 -94t-55.5 -80t-36.5 -51q-25 -10 -47 -11q-23 0 -32 23t-7 45z" />
<glyph unicode="&#x201a;" horiz-adv-x="397" d="M27 -264q53 57 80.5 121.5t33.5 124.5q8 59 0 106t-12 82q-4 31 7 55.5t31.5 41t45 25.5t49.5 9q39 0 62.5 -17.5t37 -42t17.5 -52t4 -48.5q0 -20 -16.5 -58t-43 -84t-57 -95t-61.5 -94.5t-55.5 -80t-36.5 -51.5q-25 -10 -47 -10q-23 0 -32 22.5t-7 45.5z" />
<glyph unicode="&#x201c;" horiz-adv-x="864" d="M35 1032q0 20 16.5 58t43 84.5t57 95.5t61.5 94t55.5 80t36.5 51q25 10 47 10q23 0 32 -22.5t7 -44.5q-53 -57 -80.5 -122t-34.5 -124q-8 -59 0.5 -106.5t12.5 -81.5q4 -31 -7.5 -55.5t-32 -41t-44.5 -26t-49 -9.5q-39 0 -62.5 17.5t-37 42t-17.5 52.5t-4 48zM467 1032 q0 20 16.5 58t43 84.5t57 95.5t61.5 94t55.5 80t36.5 51q25 10 47 10q23 0 32 -22.5t7 -44.5q-53 -57 -80.5 -122t-33.5 -124q-8 -59 0 -106.5t12 -81.5q4 -31 -7.5 -55.5t-31.5 -41t-44.5 -26t-49.5 -9.5q-39 0 -62.5 17.5t-37 42t-17.5 52.5t-4 48z" />
<glyph unicode="&#x201d;" horiz-adv-x="864" d="M41 940q53 57 81 121.5t34 124.5q8 59 -0.5 106t-12.5 82q-4 31 7.5 55.5t32 41t44.5 25.5t49 9q39 0 62.5 -17.5t37 -42t17.5 -52t4 -47.5t-16 -58.5t-43 -84.5t-57.5 -95t-61.5 -94t-55.5 -80t-36.5 -51q-25 -10 -47 -11q-23 0 -32 23t-7 45zM473 940q53 57 81 121.5 t34 124.5q8 59 0 106t-13 82q-4 31 7.5 55.5t32 41t45 25.5t49.5 9q39 0 62.5 -17.5t36.5 -42t17 -52t4 -47.5t-16 -58.5t-43 -84.5t-57.5 -95t-61 -94t-55.5 -80t-37 -51q-25 -10 -47 -11q-23 0 -32 23t-7 45z" />
<glyph unicode="&#x201e;" horiz-adv-x="825" d="M41 -264q53 57 81 121.5t34 124.5q8 59 -0.5 106t-12.5 82q-4 31 7.5 55.5t32 41t44.5 25.5t49 9q39 0 62.5 -17.5t37 -42t17.5 -52t4 -48.5q0 -20 -16 -58t-43 -84t-57.5 -95t-61.5 -94.5t-55.5 -80t-36.5 -51.5q-25 -10 -47 -10q-23 0 -32 22.5t-7 45.5zM436 -264 q53 57 81 121.5t34 124.5q8 59 0 106t-12 82q-4 31 7 55.5t31.5 41t45 25.5t49.5 9q39 0 62.5 -17.5t36.5 -42t17.5 -52t4.5 -48.5q0 -20 -16.5 -58t-43 -84t-57.5 -95t-61.5 -94.5t-55 -80t-37.5 -51.5q-25 -10 -47 -10q-23 0 -32 22.5t-7 45.5z" />
<glyph unicode="&#x2022;" horiz-adv-x="792" d="M39 717q0 74 27.5 139.5t75.5 114.5t114 76.5t141 27.5q74 0 139.5 -27.5t114.5 -76.5t77 -114.5t28 -139.5t-28 -139.5t-77 -114.5t-114.5 -77t-139.5 -28t-139 28t-114.5 76t-77 113.5t-27.5 141.5z" />
<glyph unicode="&#x2026;" horiz-adv-x="1773" d="M51 129q0 33 12.5 60.5t34 48t49 33t58.5 12.5q63 0 108 -46.5t45 -107.5q0 -31 -12 -58.5t-32.5 -49t-49 -34t-59.5 -12.5t-58.5 12.5t-49 33t-34 49t-12.5 59.5zM733 129q0 33 12.5 60.5t34 48t49 33t58.5 12.5q63 0 108 -46.5t45 -107.5q0 -31 -12 -58.5t-32.5 -49 t-49 -34t-59.5 -12.5t-58.5 12.5t-49 33t-34 49t-12.5 59.5zM1415 129q0 33 12.5 60.5t34 48t49 33t58.5 12.5q63 0 108 -46.5t45 -107.5q0 -31 -12 -58.5t-32.5 -49t-49.5 -34t-59 -12.5q-31 0 -58.5 12.5t-49 33t-34 49t-12.5 59.5z" />
<glyph unicode="&#x202f;" horiz-adv-x="386" />
<glyph unicode="&#x2039;" horiz-adv-x="481" d="M2 487l334 312q14 14 35.5 34.5t38.5 20.5q12 0 15 -8t3 -19q0 -16 -26.5 -63t-61.5 -102.5t-68.5 -104.5t-50.5 -70q14 -18 48 -67t69 -104.5t63.5 -102.5t32.5 -63q0 -10 -4 -19.5t-20 -9.5t-39 21.5t-43 43.5z" />
<glyph unicode="&#x203a;" horiz-adv-x="483" d="M49 825q0 10 4 19.5t21 9.5q16 0 38.5 -21.5t43.5 -44.5l325 -301l-334 -311q-14 -14 -35.5 -34.5t-37.5 -20.5q-12 0 -15.5 8t-3.5 18q0 16 27 63.5t61.5 103t68.5 104.5t50 69q-14 18 -48 67.5t-69.5 105t-63.5 102.5t-32 63z" />
<glyph unicode="&#x205f;" horiz-adv-x="483" />
<glyph unicode="&#x2122;" horiz-adv-x="2187" d="M48.5 1347.5q-9.5 4.5 4.5 20.5l41 53q10 10 18.5 11.5t24.5 1.5h731q12 0 21.5 -4.5t-4.5 -20.5l-41 -53q-10 -10 -18.5 -11.5t-24.5 -1.5h-226v-606q0 -41 16.5 -52t63.5 -21q27 -6 15 -23l-11 -27q-6 -8 -22 -8h-344q-8 0 -14.5 3t-2.5 18l9 22q4 10 10 12.5t12 4.5 q23 4 43.5 20t20.5 51v606h-301q-12 0 -21.5 4.5zM953.5 1384.5q-3.5 6.5 0.5 14.5l9 26q8 8 20 9h217q31 0 43 -7.5t29 -42.5l268 -532l293 545q12 23 26.5 30t26.5 7h228q10 0 16 -3.5t2 -17.5l-8 -24q-4 -10 -12.5 -13.5t-18.5 -7.5q-29 -6 -46 -20.5t-17 -55.5v-555 q0 -41 16 -52t63 -21q20 -6 13 -23l-11 -27q-2 -8 -20 -8h-344q-10 0 -15.5 3t-0.5 18l6 22q4 10 11 12.5t11 4.5q25 4 45.5 20t20.5 51v457h-4l-291 -563q-6 -10 -11.5 -17.5t-13.5 -7.5h-41q-4 0 -12 10.5t-14 26.5l-271 551h-4v-457q0 -41 16.5 -52t63.5 -21 q23 -6 14 -23l-10 -27q-6 -8 -22 -8h-230q-8 0 -14 3t-2 18l8 22q4 10 10.5 12.5t12.5 4.5q23 4 43 20t20 51v551q-27 39 -53.5 60.5t-44.5 25.5t-21.5 10.5z" />
<glyph unicode="&#x25fc;" horiz-adv-x="1024" d="M0 0v1024h1024v-1024h-1024z" />
<glyph unicode="&#xfb01;" horiz-adv-x="1353" d="M41 35l12 35q6 16 17.5 20t21.5 8q39 8 72 35t33 86v688h-140v117h140v96q0 61 24.5 113.5t62.5 94.5t83 73t86 49q82 37 159.5 46t139.5 9q57 0 115.5 -4t125.5 -26l80 -125q6 -10 2 -18.5t-14 -14.5l-109 -66q-10 -6 -24.5 -3t-24.5 12l-86 61q-37 27 -82 47.5 t-98 20.5q-86 0 -127 -60.5t-41 -165.5v-139h694v-805q0 -66 28 -87t103 -38q20 -4 24.5 -14t-1.5 -23l-17 -41q-10 -16 -34 -16h-504q-12 0 -23.5 6t-3.5 29l13 35q6 16 17 20t21 8q39 8 72 35t33 86v586q0 66 -27.5 84t-105.5 18h-289v-688q0 -66 27.5 -87t103.5 -38 q20 -4 24.5 -14t-1.5 -23l-17 -41q-10 -16 -35 -16h-503q-12 0 -23.5 6t-3.5 29z" />
<glyph unicode="&#xfb02;" horiz-adv-x="1366" d="M41 35l12 35q6 16 17.5 20t21.5 8q39 8 72 35t33 86v688h-140v117h140v98q0 61 23.5 111.5t62.5 88.5t85 66.5t93 49.5q41 18 95 40.5t101 26.5q27 2 62 -1t51 -19q8 16 16.5 18t18.5 2h325q25 0 38.5 -10t13.5 -41v-1235q0 -66 25.5 -87t92.5 -38q18 -4 22.5 -14 t-1.5 -23l-14 -41q-10 -16 -31 -16h-496q-12 0 -23.5 6t-2.5 29l12 35q6 16 17.5 20t21.5 8q39 8 71.5 35t32.5 86v1067q0 47 -13 69.5t-42 35.5l-4 -5l12 -10q10 -14 -8 -33l-55 -55q-8 -8 -18.5 -5t-20.5 7l-78 45q-33 16 -66.5 37t-68.5 21q-45 0 -61.5 -41t-16.5 -101 v-227h281v-76l-41 -41h-240v-688q0 -66 27.5 -87t103.5 -38q20 -4 24.5 -14t-1.5 -23l-17 -41q-10 -16 -35 -16h-503q-12 0 -23.5 6t-3.5 29z" />
</font>
</defs>
</svg>
